<svg width="355" height="152" viewBox="0 0 355 152" fill="none" xmlns="http://www.w3.org/2000/svg">
<path d="M355 151.424H27.4089C23.8447 151.424 20.3153 150.722 17.0224 149.358C13.7294 147.994 10.7374 145.995 8.21709 143.474C5.69678 140.954 3.69757 137.962 2.33359 134.669C0.96961 131.376 0.267578 127.847 0.267578 124.282C0.267578 120.718 0.96961 117.189 2.33359 113.896C3.69757 110.603 5.69678 107.611 8.21709 105.091C10.7374 102.57 13.7294 100.571 17.0224 99.2072C20.3153 97.8432 23.8447 97.1412 27.4089 97.1412H309.679C312.447 97.1412 315.102 96.0413 317.06 94.0836C319.018 92.1259 320.118 89.4708 320.118 86.7022C320.118 83.9336 319.018 81.2784 317.06 79.3207C315.102 77.363 312.447 76.2632 309.679 76.2632H18.0138V59.5609H309.679C316.877 59.5609 323.78 62.4204 328.87 67.5104C333.96 72.6004 336.82 79.5039 336.82 86.7022C336.82 93.9005 333.96 100.804 328.87 105.894C323.78 110.984 316.877 113.844 309.679 113.844H27.4089C24.6403 113.844 21.9851 114.943 20.0274 116.901C18.0697 118.859 16.9699 121.514 16.9699 124.282C16.9699 127.051 18.0697 129.706 20.0274 131.664C21.9851 133.622 24.6403 134.721 27.4089 134.721H355V151.424Z" fill="#1B99C5"/>
<path d="M41.3955 67.4945H28.4512V68.3296H41.3955V67.4945Z" fill="white"/>
<path d="M78.1416 67.4945H65.1973V68.3296H78.1416V67.4945Z" fill="white"/>
<path d="M114.888 67.4945H101.943V68.3296H114.888V67.4945Z" fill="white"/>
<path d="M151.634 67.4945H138.689V68.3296H151.634V67.4945Z" fill="white"/>
<path d="M188.378 67.4945H175.434V68.3296H188.378V67.4945Z" fill="white"/>
<path d="M225.124 67.4945H212.18V68.3296H225.124V67.4945Z" fill="white"/>
<path d="M261.866 67.4945H248.922V68.3296H261.866V67.4945Z" fill="white"/>
<path d="M298.612 67.4945H285.668V68.3296H298.612V67.4945Z" fill="white"/>
<path d="M41.3955 105.075H28.4512V105.91H41.3955V105.075Z" fill="white"/>
<path d="M78.1416 105.075H65.1973V105.91H78.1416V105.075Z" fill="white"/>
<path d="M114.888 105.075H101.943V105.91H114.888V105.075Z" fill="white"/>
<path d="M151.634 105.075H138.689V105.91H151.634V105.075Z" fill="white"/>
<path d="M188.378 105.075H175.434V105.91H188.378V105.075Z" fill="white"/>
<path d="M225.124 105.075H212.18V105.91H225.124V105.075Z" fill="white"/>
<path d="M261.866 105.075H248.922V105.91H261.866V105.075Z" fill="white"/>
<path d="M298.612 105.075H285.668V105.91H298.612V105.075Z" fill="white"/>
<path d="M41.3955 142.655H28.4512V143.49H41.3955V142.655Z" fill="white"/>
<path d="M78.1416 142.655H65.1973V143.49H78.1416V142.655Z" fill="white"/>
<path d="M114.888 142.655H101.943V143.49H114.888V142.655Z" fill="white"/>
<path d="M151.634 142.655H138.689V143.49H151.634V142.655Z" fill="white"/>
<path d="M188.378 142.655H175.434V143.49H188.378V142.655Z" fill="white"/>
<path d="M225.124 142.655H212.18V143.49H225.124V142.655Z" fill="white"/>
<path d="M261.866 142.655H248.922V143.49H261.866V142.655Z" fill="white"/>
<path d="M298.612 142.655H285.668V143.49H298.612V142.655Z" fill="white"/>
<path d="M330.612 142.655H317.668V143.49H330.612V142.655Z" fill="white"/>
<path d="M355 142.655H347.668V143.49L355 143.5V142.655Z" fill="white"/>
<path d="M286.092 139.752L293.557 139.756L293.557 138.571L286.093 138.567L286.092 139.752Z" fill="#3F3D56"/>
<path d="M232.129 138.834L233.669 139.191L292.197 139.222L292.724 137.996C293.642 135.892 293.957 133.575 293.634 131.303C293.382 129.61 292.75 127.927 291.315 127.196L288.718 109.897L256.337 109.839L243.809 119.943C243.809 119.943 237.9 119.837 234.689 123.834C233.531 125.32 232.847 127.121 232.727 129.001L232.6 131.08L232.129 138.834Z" fill="#1C3A6A"/>
<path d="M244.981 145.772C248.973 145.772 252.208 142.536 252.208 138.545C252.208 134.554 248.973 131.318 244.981 131.318C240.99 131.318 237.754 134.554 237.754 138.545C237.754 142.536 240.99 145.772 244.981 145.772Z" fill="#3F3D56"/>
<path d="M244.983 142.349C247.084 142.349 248.787 140.646 248.787 138.545C248.787 136.444 247.084 134.741 244.983 134.741C242.883 134.741 241.18 136.444 241.18 138.545C241.18 140.646 242.883 142.349 244.983 142.349Z" fill="#CCCCCC"/>
<path d="M280.645 145.791C284.637 145.791 287.872 142.556 287.872 138.564C287.872 134.573 284.637 131.337 280.645 131.337C276.654 131.337 273.418 134.573 273.418 138.564C273.418 142.556 276.654 145.791 280.645 145.791Z" fill="#3F3D56"/>
<path d="M280.644 142.368C282.744 142.368 284.447 140.665 284.447 138.564C284.447 136.463 282.744 134.76 280.644 134.76C278.543 134.76 276.84 136.463 276.84 138.564C276.84 140.665 278.543 142.368 280.644 142.368Z" fill="#CCCCCC"/>
<path d="M248.783 118.762L266.266 118.77H268.4L272.003 118.772V118.509L272.006 115.341L272.009 111.783H269.611L267.477 111.781L263.697 111.778H261.563L257.198 111.775L248.783 118.762Z" fill="white"/>
<path d="M274.848 118.775L284.087 118.78L284.09 116.967V113.798L284.092 111.791H282.739L280.605 111.788L274.85 111.786L274.848 118.775Z" fill="white"/>
<path d="M270.817 126.237L272.002 126.238L272.003 123.987L270.818 123.986L270.817 126.237Z" fill="#3F3D56"/>
<path d="M253.523 121.963L253.523 120.778L251.272 120.777L251.272 121.961L253.523 121.963Z" fill="#3F3D56"/>
<path d="M252.693 121.299L252.563 121.299C252.238 121.298 251.916 121.234 251.616 121.11C251.315 120.985 251.042 120.802 250.812 120.572C250.583 120.342 250.4 120.069 250.276 119.769C250.152 119.468 250.088 119.146 250.088 118.821C250.088 118.496 250.153 118.174 250.277 117.874C250.402 117.573 250.584 117.3 250.814 117.071C251.044 116.841 251.317 116.658 251.618 116.534C251.918 116.41 252.24 116.346 252.566 116.346L252.696 116.346L252.693 121.299Z" fill="#3F3D56"/>
<path d="M232.596 131.08C233.492 131.178 234.393 130.956 235.142 130.454C235.89 129.952 236.437 129.202 236.687 128.336C236.937 127.47 236.873 126.543 236.507 125.72C236.14 124.896 235.495 124.229 234.685 123.834C233.527 125.32 232.843 127.121 232.722 129.001L232.596 131.08Z" fill="#3F3D56"/>
<path d="M267.48 111.781L272.007 118.509L272.009 115.341L269.615 111.783L267.48 111.781Z" fill="#F2F2F2"/>
<path d="M280.605 111.788L284.09 116.967V113.798L282.74 111.791L280.605 111.788Z" fill="#F2F2F2"/>
<path d="M261.566 111.778L266.27 118.77H268.404L263.701 111.778H261.566Z" fill="#F2F2F2"/>
<path d="M134.991 54.7964C133.495 55.4502 131.716 55.7124 129.98 55.9617C120.405 57.3408 110.799 58.7227 101.047 59.2519C98.7308 59.3784 96.4066 59.4518 94.0747 59.4723C93.9193 59.4732 93.7639 59.4742 93.6084 59.4742C93.1077 59.476 92.6068 59.4751 92.1054 59.4714C85.2884 59.4184 78.4927 58.8269 72.0004 57.4273C69.2373 56.8321 66.503 56.0788 64.1931 54.8783C62.3662 53.9288 60.8158 52.6705 59.9689 51.2197C59.7477 50.8463 59.5742 50.4468 59.4524 50.0303C59.3535 49.6878 59.2932 49.3353 59.2727 48.9795C59.2644 48.8511 59.2616 48.7228 59.2653 48.5954C59.273 48.2206 59.3188 47.8477 59.4021 47.4822C59.6478 46.3802 60.2053 45.2949 60.9135 44.2422C60.9172 44.2375 60.92 44.232 60.9237 44.2273C61.0066 44.1036 61.0919 43.9806 61.1797 43.8581C61.2243 43.7949 61.2699 43.7316 61.3155 43.6693C61.886 42.8844 62.5273 42.1191 63.1685 41.3816C63.7017 40.7678 64.2434 40.1419 64.7571 39.5049C64.8595 39.3775 64.9609 39.2495 65.0614 39.1208C65.4623 38.6117 65.8369 38.0825 66.1838 37.5352C66.2229 37.472 66.262 37.4088 66.3001 37.3455C66.4118 37.1605 66.5176 36.9745 66.6175 36.7875C66.9661 36.1524 67.2266 35.4729 67.3918 34.7677C67.4207 34.6402 67.4449 34.5119 67.4635 34.3836C67.5458 33.8631 67.5477 33.333 67.469 32.8119C67.4616 32.7617 67.4532 32.7115 67.443 32.6622C67.3034 31.9024 66.9907 31.1752 66.5859 30.4638C66.504 30.3187 66.4174 30.1745 66.3281 30.0304C66.302 29.9885 66.2769 29.9476 66.2499 29.9058C66.195 29.8193 66.1391 29.7328 66.0824 29.6463C65.3639 28.5573 64.5021 27.4925 63.8069 26.3942C63.5793 26.0391 63.3711 25.6718 63.1834 25.294C63.121 25.1666 63.0615 25.0383 63.0075 24.91C62.8858 24.6295 62.7841 24.3408 62.7031 24.046C62.5208 23.3722 62.474 22.6689 62.5654 21.9768V21.9759C62.63 21.4891 62.7557 21.0123 62.9395 20.5568C62.9917 20.4275 63.0475 20.2992 63.1089 20.1727C63.5074 19.3553 64.0496 18.616 64.7096 17.9901C65.2226 17.4983 65.7892 17.0656 66.3988 16.7002C66.4677 16.6574 66.5384 16.6165 66.6091 16.5756C66.8092 16.4603 67.0136 16.3511 67.2224 16.2482C67.2941 16.211 67.3657 16.1757 67.4374 16.1422C67.8706 15.9359 68.3142 15.7521 68.7664 15.5917C68.8166 15.5731 68.8669 15.5554 68.9181 15.5387C69.0242 15.5015 69.1312 15.4661 69.2382 15.4317C69.4262 15.3703 69.617 15.3136 69.8097 15.2597C73.7668 14.14 78.5439 14.3074 82.8593 14.8775C83.2586 14.9305 83.6582 14.9859 84.058 15.0439C84.3707 15.0876 84.6834 15.1341 84.9971 15.1816C86.2311 15.3666 87.4661 15.5638 88.7029 15.747C89.6746 15.8911 90.6471 16.0269 91.6206 16.1422C93.3751 16.363 95.1412 16.4797 96.9095 16.4919C97.816 16.4919 98.7233 16.4556 99.6317 16.371C100.24 16.3143 100.843 16.238 101.44 16.1422C103.062 15.8744 104.667 15.5139 106.248 15.0625C107.236 14.7891 108.214 14.4962 109.188 14.2042C109.682 14.0554 110.178 13.9075 110.675 13.7606C111.159 13.6173 111.644 13.4775 112.131 13.3411C112.957 13.1105 113.789 12.8938 114.63 12.7004C115.981 12.3827 117.351 12.1516 118.732 12.0085C118.977 11.9843 119.225 11.9639 119.473 11.9471C119.833 11.9229 120.193 11.9074 120.556 11.9006C121.006 11.8904 121.457 11.8941 121.907 11.9136C122.036 11.9183 122.165 11.9248 122.294 11.9322C122.503 11.9453 122.71 11.9611 122.917 11.9797C122.942 11.9815 122.966 11.9843 122.99 11.9862C123.42 12.0271 123.846 12.082 124.263 12.1517C125.402 12.3304 126.514 12.6529 127.571 13.1114L127.574 13.1124C127.828 13.2249 128.074 13.3467 128.313 13.4778C128.752 13.7178 129.165 14.002 129.547 14.326C129.879 14.607 130.181 14.9224 130.447 15.2671C130.491 15.3248 130.534 15.3834 130.574 15.4419C131.52 16.782 131.704 18.3546 130.74 19.6761L130.778 19.3004C130.668 19.5905 130.557 19.8816 130.449 20.1727C130.4 20.3001 130.352 20.4284 130.304 20.5568C130.082 21.1501 129.863 21.7462 129.649 22.3451V22.3488C129.582 22.5339 129.517 22.7152 129.453 22.9012V22.905C129.218 23.5717 128.993 24.2385 128.781 24.91C128.741 25.0374 128.7 25.1657 128.661 25.294C128.612 25.4512 128.565 25.6084 128.517 25.7655C128.469 25.9264 128.422 26.0879 128.375 26.2501C128.356 26.3142 128.339 26.3793 128.32 26.4444C128.018 27.5102 127.756 28.5787 127.552 29.6463C127.527 29.7746 127.504 29.903 127.481 30.0304C127.469 30.0992 127.456 30.1689 127.444 30.2378C127.431 30.3131 127.419 30.3884 127.407 30.4638C127.19 31.7591 127.08 33.0702 127.08 34.3836C127.08 34.5119 127.081 34.6402 127.084 34.7677C127.1 35.4433 127.152 36.1177 127.242 36.7875C127.268 36.9735 127.296 37.1595 127.327 37.3455C127.428 37.9444 127.562 38.5371 127.73 39.1208C127.766 39.2492 127.805 39.3775 127.845 39.5049C128.158 40.4957 128.567 41.4532 129.067 42.3636C129.31 42.8054 129.577 43.2406 129.867 43.6693C129.91 43.7326 129.953 43.7958 129.996 43.8581C130.082 43.9818 130.17 44.1049 130.261 44.2273C130.264 44.232 130.268 44.2375 130.272 44.2422C131.155 45.4306 132.167 46.5172 133.29 47.4822C133.704 47.8421 134.137 48.1911 134.589 48.5293C134.618 48.5507 134.648 48.5731 134.677 48.5954C134.848 48.7219 135.023 48.8502 135.197 48.9795C136.112 49.6583 137.018 50.3744 137.378 51.2197C137.457 51.3987 137.508 51.5883 137.53 51.7824C137.665 52.9988 136.488 54.1417 134.991 54.7964Z" fill="#1C3A6A"/>
<path d="M110.348 0.499315C110.266 0.429088 110.179 0.365536 110.087 0.30928V0.308347C110.079 0.302832 110.07 0.297854 110.061 0.293444C109.956 0.230049 109.845 0.176412 109.73 0.133217C109.497 0.0446297 109.249 -0.000528291 108.999 4.66285e-06H86.2712C85.7234 0.000645657 85.1983 0.216771 84.8109 0.600971C84.4236 0.98517 84.2057 1.50607 84.2051 2.04941V46.298C84.2048 46.5063 84.2367 46.7133 84.2999 46.9119C84.3065 46.9333 84.314 46.9548 84.3215 46.9753C84.3272 46.992 84.3328 47.0079 84.3394 47.0237C84.37 47.1058 84.4068 47.1855 84.4493 47.2622C84.469 47.2985 84.4896 47.3339 84.5112 47.3693C84.531 47.4019 84.5516 47.4327 84.5742 47.4634C84.5845 47.4792 84.5958 47.4951 84.608 47.5109C84.6092 47.5138 84.6112 47.5164 84.6136 47.5184C84.6333 47.5454 84.654 47.5724 84.6765 47.5985C84.7113 47.6404 84.7479 47.6814 84.7855 47.7196C84.8108 47.7466 84.8371 47.7717 84.8634 47.796C85.2451 48.1503 85.7484 48.3475 86.2712 48.3474H108.999C109.547 48.3472 110.072 48.1312 110.459 47.7469C110.847 47.3626 111.064 46.8415 111.065 46.298V2.04941C111.065 1.7551 111.001 1.46423 110.877 1.19669C110.754 0.929161 110.573 0.691279 110.348 0.499315Z" fill="white"/>
<path d="M109.339 23.7973H109.337C109.276 23.7955 109.215 23.7973 109.155 23.7973H106.01C105.835 23.7876 105.661 23.7876 105.486 23.7973C105.376 23.8049 105.269 23.8399 105.175 23.8992C105.098 23.9518 105.035 24.0219 104.991 24.1036C104.948 24.1852 104.924 24.2761 104.924 24.3685C104.927 24.5213 104.991 24.6669 105.102 24.7737C105.212 24.8806 105.362 24.9402 105.517 24.9397C105.606 24.9414 105.696 24.9397 105.785 24.9397H108.956C109.293 24.9397 109.68 24.9818 109.857 24.6189C109.898 24.5319 109.917 24.4361 109.911 24.3403C109.905 24.2444 109.875 24.1515 109.824 24.0699C109.772 23.9883 109.701 23.9207 109.617 23.8731C109.532 23.8255 109.437 23.7994 109.339 23.7973Z" fill="#CCCCCC"/>
<path d="M107.418 28.7782C107.948 28.7782 108.378 28.3487 108.378 27.819C108.378 27.2892 107.948 26.8597 107.418 26.8597C106.888 26.8597 106.459 27.2892 106.459 27.819C106.459 28.3487 106.888 28.7782 107.418 28.7782Z" fill="#CCCCCC"/>
<path d="M107.612 28.0109C107.824 28.0109 107.996 27.925 107.996 27.8191C107.996 27.7131 107.824 27.6272 107.612 27.6272C107.4 27.6272 107.229 27.7131 107.229 27.8191C107.229 27.925 107.4 28.0109 107.612 28.0109Z" fill="#F2F2F2"/>
<path d="M85.8829 38.1779C85.5577 38.4984 85.2997 38.8794 85.124 39.2989C84.9482 39.7184 84.8581 40.1682 84.8589 40.6223C84.8589 41.1871 85.0858 41.7288 85.4897 42.1282C85.8935 42.5276 86.4412 42.752 87.0124 42.7521H109.566C109.913 42.7521 110.021 42.9744 109.787 43.2272C109.702 43.3185 109.611 43.3037 109.519 43.3056C109.104 43.3129 108.687 43.3056 108.271 43.3056H88.3544C87.8953 43.3056 87.4407 43.395 87.0166 43.5689C86.5924 43.7427 86.207 43.9974 85.8824 44.3185C85.5578 44.6397 85.3003 45.0209 85.1247 45.4404C84.9491 45.86 84.8588 46.3096 84.8589 46.7637V47.9638C84.5989 47.7248 84.4061 47.4231 84.2993 47.0884V46.8799C84.2994 46.6058 84.2678 46.3325 84.2051 46.0654V40.6398C84.2679 40.4041 84.2995 40.1613 84.2993 39.9175C84.2995 39.6774 84.2679 39.4383 84.2051 39.2064V34.4993C84.2678 34.2635 84.2995 34.0208 84.2993 33.777C84.2995 33.5369 84.2679 33.2978 84.2051 33.0658V28.3578C84.2678 28.1221 84.2995 27.8793 84.2993 27.6356V23.79H84.8589V25.9448C84.8589 27.145 85.341 28.296 86.1991 29.1447C87.0572 29.9933 88.221 30.4701 89.4345 30.4702H109.568C109.915 30.4702 110.024 30.6925 109.789 30.9452C109.703 31.0365 109.611 31.0227 109.519 31.0236C109.104 31.031 108.687 31.0236 108.271 31.0236H88.3544C87.4273 31.0238 86.5381 31.3882 85.8826 32.0367C85.2271 32.6853 84.8588 33.5647 84.8589 34.4817C84.8589 35.0466 85.0858 35.5883 85.4897 35.9877C85.8935 36.3871 86.4412 36.6115 87.0124 36.6116H109.566C109.913 36.6116 110.021 36.833 109.787 37.0866C109.702 37.178 109.611 37.1632 109.519 37.1651C109.104 37.1724 108.687 37.1651 108.271 37.1651H88.3544C87.8953 37.1643 87.4406 37.2534 87.0164 37.4273C86.5922 37.6011 86.207 37.8562 85.8829 38.1779Z" fill="white"/>
<path d="M109.789 12.8571C109.704 12.9495 109.613 12.9346 109.521 12.9365C109.106 12.9439 108.689 12.9365 108.273 12.9365H88.3548C87.8957 12.9365 87.441 13.027 87.0168 13.2029C86.5926 13.3788 86.2072 13.6366 85.8826 13.9616C85.5579 14.2866 85.3004 14.6724 85.1248 15.097C84.9492 15.5216 84.8588 15.9766 84.8589 16.4362V17.6507C84.5989 17.4088 84.4061 17.1035 84.2993 16.7648V16.5538C84.2994 16.2763 84.2678 15.9998 84.2051 15.7295V10.2387C84.2679 10.0001 84.2995 9.75441 84.2993 9.50772C84.2995 9.26472 84.2679 9.02273 84.2051 8.78799V2.05371C84.2057 1.50923 84.4221 0.987236 84.8068 0.602231C85.1915 0.217226 85.7131 0.00064701 86.2571 4.67336e-06H108.829C109.078 -0.00052944 109.324 0.0447232 109.556 0.133496C109.67 0.176779 109.78 0.230528 109.884 0.294059C109.86 0.343112 109.829 0.388143 109.791 0.427549C109.705 0.519965 109.613 0.505963 109.521 0.506897C109.106 0.514365 108.689 0.506897 108.273 0.506897H88.3548C87.4275 0.507095 86.5383 0.875906 85.8827 1.53221C85.2271 2.18851 84.8589 3.07856 84.8589 4.0066C84.859 4.57824 85.0859 5.12644 85.4898 5.53065C85.8937 5.93486 86.4414 6.16198 87.0126 6.16205H109.568C109.915 6.16205 110.023 6.38609 109.789 6.6428C109.704 6.73522 109.613 6.72028 109.521 6.72215C109.106 6.72962 108.689 6.72215 108.273 6.72215H88.3548C87.4277 6.72235 86.5386 7.09103 85.8831 7.74713C85.2275 8.40324 84.8591 9.29305 84.8589 10.2209C84.859 10.7926 85.0859 11.3408 85.4898 11.745C85.8937 12.1492 86.4414 12.3763 87.0126 12.3764H109.568C109.915 12.3764 110.023 12.6013 109.789 12.8571Z" fill="white"/>
<path d="M107.226 12.8543C107.226 13.3425 107.185 13.8299 107.103 14.3117C107.069 14.5148 107.027 14.7155 106.979 14.9137C106.961 14.9866 106.943 15.0594 106.923 15.1314C106.86 15.3637 106.787 15.5932 106.705 15.8173C105.93 17.953 104.346 19.7314 102.269 20.8004C102.135 20.8705 101.998 20.937 101.86 20.9999C101.686 21.08 101.508 21.1547 101.328 21.2239C101.221 21.2649 101.114 21.3041 101.006 21.3414C99.0783 22.0034 96.9787 22.0465 95.0234 21.4644C94.9275 21.4361 94.8335 21.4061 94.7395 21.3742C94.5458 21.3104 94.3556 21.2406 94.1688 21.1647C94.0435 21.1137 93.92 21.0609 93.7985 21.0044C92.6716 20.491 91.6622 19.7681 90.8287 18.8777C89.9953 17.9873 89.3544 16.947 88.9433 15.8173C88.8625 15.5923 88.7894 15.3637 88.7268 15.1314C88.7068 15.0594 88.6888 14.9866 88.6707 14.9137C88.6223 14.7152 88.5808 14.5145 88.5463 14.3117C88.2206 12.3918 88.5486 10.4224 89.4817 8.6955C89.4874 8.68549 89.4931 8.67456 89.4988 8.66454C89.6531 8.38277 89.823 8.10913 90.0077 7.84479L90.0448 7.79288C90.987 6.46091 92.2829 5.39435 93.7985 4.70335C93.921 4.64779 94.0444 4.59405 94.1688 4.54396C94.3502 4.47109 94.5335 4.40278 94.7205 4.34085C94.8202 4.30714 94.9218 4.27526 95.0234 4.2443C96.9787 3.66215 99.0783 3.7053 101.006 4.36726C101.121 4.40642 101.235 4.44832 101.348 4.49204C101.521 4.55944 101.692 4.6317 101.86 4.70882C101.998 4.77167 102.134 4.83785 102.269 4.90738C103.607 5.59658 104.752 6.58667 105.605 7.79288L105.642 7.84479C105.826 8.10913 105.996 8.38277 106.151 8.66454C106.156 8.67456 106.162 8.68549 106.168 8.6955C106.865 9.97959 107.228 11.4065 107.226 12.8543Z" fill="#4FC9F3"/>
<path d="M134.991 54.8345C133.495 55.4829 131.716 55.743 129.98 55.9902C120.405 57.3581 110.799 58.7288 101.047 59.2536C98.7308 59.379 96.4066 59.4519 94.0747 59.4722C93.9193 59.4731 93.7639 59.474 93.6084 59.474C93.1077 59.4759 92.6068 59.475 92.1054 59.4713C85.2884 59.4187 78.4927 58.8321 72.0004 57.4439C69.2373 56.8536 66.503 56.1064 64.1931 54.9156C62.3662 53.9739 60.8158 52.7259 59.9689 51.287C59.7477 50.9166 59.5742 50.5203 59.4524 50.1073C59.3535 49.7676 59.2932 49.418 59.2727 49.065C59.2644 48.9377 59.2616 48.8104 59.2653 48.684C59.273 48.3124 59.3188 47.9424 59.4021 47.58H133.29C133.704 47.9369 134.137 48.2831 134.589 48.6186C134.618 48.6398 134.648 48.6619 134.677 48.684C134.848 48.8095 135.023 48.9368 135.197 49.065C136.112 49.7383 137.018 50.4486 137.378 51.287C137.457 51.4645 137.508 51.6526 137.53 51.845C137.665 53.0515 136.488 54.1851 134.991 54.8345Z" fill="black"/>
<path d="M140.731 52.2205C139 51.5721 136.943 51.312 134.935 51.0648C123.857 49.6969 112.744 48.3262 101.463 47.8014C98.783 47.676 96.0943 47.6031 93.3966 47.5828C93.2168 47.5819 93.037 47.581 92.8572 47.581C92.2779 47.5791 91.6984 47.58 91.1184 47.5837C83.232 47.6363 75.3703 48.2229 67.8597 49.6111C64.6631 50.2014 61.4999 50.9486 58.8277 52.1394C56.7143 53.0811 54.9206 54.3291 53.9408 55.768C53.685 56.1384 53.4843 56.5347 53.3433 56.9477C53.2289 57.2874 53.1592 57.637 53.1355 57.99C53.1258 58.1173 53.1226 58.2446 53.1269 58.3709C53.1357 58.7426 53.1888 59.1126 53.2851 59.475H138.763C139.242 59.1181 139.743 58.7719 140.266 58.4364C140.299 58.4152 140.334 58.3931 140.367 58.3709C140.565 58.2455 140.768 58.1182 140.969 57.99C142.028 57.3167 143.076 56.6064 143.493 55.768C143.583 55.5905 143.643 55.4024 143.668 55.21C143.824 54.0035 142.462 52.8699 140.731 52.2205Z" fill="black"/>
<path d="M111.061 50.4934C111.061 50.364 111.07 50.2329 111.06 50.1034C111.048 49.9411 110.965 49.7886 110.828 49.6765C110.69 49.5645 110.508 49.5012 110.318 49.4992C110.223 49.4976 110.128 49.4992 110.033 49.4992H85.0048C84.9016 49.4953 84.7985 49.5094 84.7019 49.5406C84.6052 49.5718 84.5169 49.6196 84.4425 49.6809C84.368 49.7423 84.3089 49.816 84.2686 49.8976C84.2284 49.9791 84.208 50.0668 84.2085 50.1554C84.2039 50.6213 84.2085 51.0872 84.2085 51.5531V52.3651C84.2085 52.4961 84.1983 52.632 84.2132 52.7631C84.2334 52.9196 84.3199 53.0644 84.4564 53.1699C84.5928 53.2753 84.7697 53.3342 84.9535 53.3353C84.9833 53.3361 85.0141 53.3353 85.0439 53.3353H110.321C110.52 53.3324 110.709 53.2624 110.848 53.1403C110.986 53.0183 111.063 52.8543 111.061 52.684C111.063 52.5177 111.061 52.3507 111.061 52.1837V50.4934Z" fill="#B9B9B9"/>
<path d="M109.336 25.3249C109.866 25.3249 110.296 24.9813 110.296 24.5575C110.296 24.1336 109.866 23.79 109.336 23.79C108.806 23.79 108.377 24.1336 108.377 24.5575C108.377 24.9813 108.806 25.3249 109.336 25.3249Z" fill="#CCCCCC"/>
<path d="M116.722 43.8633C116.72 43.6353 116.638 43.4152 116.488 43.242C116.339 43.0688 116.132 42.9538 115.905 42.9172L101.942 40.6437C101.808 40.6217 101.671 40.6278 101.539 40.6614L98.2668 41.5004L96.3891 41.9823L92.9241 42.8704C92.7149 42.9243 92.5297 43.0455 92.3974 43.2149C92.2652 43.3844 92.1934 43.5926 92.1934 43.8069V58.3143C92.1944 58.5354 92.2715 58.7496 92.4119 58.9215C92.5523 59.0934 92.7476 59.2127 92.9655 59.2596L107.188 59.0999C107.255 59.1142 107.323 59.1212 107.392 59.1209C107.491 59.1211 107.59 59.1061 107.685 59.0766L116.135 59.285C116.334 59.2233 116.508 59.0995 116.631 58.932C116.754 58.7645 116.819 58.5621 116.817 58.355L116.722 43.8633Z" fill="white"/>
<path d="M116.722 43.863C116.72 43.635 116.638 43.4149 116.488 43.2418C116.339 43.0686 116.132 42.9535 115.905 42.9169L101.942 40.6437C101.808 40.6217 101.671 40.6278 101.539 40.6614L98.2668 41.5003L96.3891 41.9822L92.9241 42.8702C92.7149 42.924 92.5297 43.0452 92.3974 43.2147C92.2652 43.3841 92.1934 43.5923 92.1934 43.8066V58.3123C92.1944 58.5335 92.2715 58.7476 92.4119 58.9195C92.5523 59.0913 92.7476 59.2106 92.9655 59.2576L107.188 59.0979C107.255 59.1121 107.323 59.1191 107.392 59.1188C107.491 59.119 107.59 59.1041 107.685 59.0745L116.135 59.283C116.334 59.2213 116.508 59.0975 116.631 58.93C116.754 58.7625 116.819 58.5601 116.817 58.353L116.722 43.863ZM116.062 59.0525L107.612 59.2518C107.491 59.289 107.363 59.2951 107.24 59.2695L93.0159 59.0215C92.8525 58.9861 92.7061 58.8966 92.6009 58.7677C92.4957 58.6388 92.4379 58.4782 92.4372 58.3123V43.8066C92.4373 43.6581 92.4833 43.5132 92.5691 43.3914C92.6548 43.2696 92.7762 43.1769 92.9168 43.1256C92.9391 43.1173 92.9619 43.1103 92.985 43.1047L96.6509 42.1651L98.8187 41.6091L101.6 40.8959C101.66 40.8801 101.721 40.8723 101.783 40.8725C101.823 40.8725 101.862 40.8758 101.902 40.8822L115.865 43.1554C115.978 43.1737 116.084 43.2177 116.176 43.2838C116.269 43.35 116.344 43.4365 116.397 43.5366C116.45 43.6381 116.477 43.7504 116.478 43.8646L116.573 58.3547C116.575 58.51 116.526 58.6618 116.434 58.7875C116.342 58.9132 116.211 59.0061 116.062 59.0525Z" fill="#CCCCCC"/>
<path d="M116.26 43.5974C116.25 43.6038 116.24 43.6085 116.229 43.6115L112.096 44.7439L110.81 45.0963L107.151 46.0985C107.14 46.1011 107.13 46.1025 107.119 46.1027C107.111 46.1025 107.104 46.102 107.097 46.101L92.3428 43.3744L92.2937 43.3653C92.2617 43.3592 92.2334 43.3405 92.215 43.3134C92.1966 43.2862 92.1895 43.2527 92.1954 43.2203C92.2012 43.1879 92.2195 43.1591 92.2462 43.1403C92.2729 43.1215 92.3058 43.1141 92.3379 43.1199L92.6347 43.1746L107.114 45.8506L110.268 44.9868L112.032 44.5035L116.1 43.3885L116.165 43.3711C116.193 43.3636 116.223 43.3663 116.249 43.3788C116.275 43.3912 116.296 43.4125 116.308 43.4391C116.311 43.4454 116.314 43.4521 116.316 43.459C116.322 43.485 116.321 43.5126 116.311 43.5376C116.3 43.5625 116.283 43.5835 116.26 43.5974Z" fill="#CCCCCC"/>
<path d="M107.285 59.2412C107.24 59.2412 107.202 59.187 107.202 59.5338L107.119 46.1436C107.119 45.6614 107.156 45.6059 107.201 45.6053H107.202C107.247 45.6053 107.285 45.6595 107.285 46.1414L107.368 59.5316C107.368 59.1851 107.331 59.2406 107.286 59.2412H107.285Z" fill="#CCCCCC"/>
<path d="M112.094 59.5199L110.78 59.5337L110.24 45.0305L96.4776 42.3037C96.4641 42.3013 96.4508 42.298 96.4377 42.294C96.332 42.264 96.2397 42.1991 96.1758 42.1101L98.0551 41.6256L98.6075 41.735L111.667 44.3217C111.735 44.3352 111.8 44.3633 111.857 44.4041C111.914 44.4449 111.961 44.4975 111.995 44.5582C112.036 44.6287 112.093 59.4356 112.094 59.5199Z" fill="#CCCCCC"/>
<path d="M92.9418 46.6001C95.0023 46.6001 96.6727 44.9297 96.6727 42.8692C96.6727 40.8087 95.0023 39.1384 92.9418 39.1384C90.8813 39.1384 89.2109 40.8087 89.2109 42.8692C89.2109 44.9297 90.8813 46.6001 92.9418 46.6001Z" fill="#1C3A6A"/>
<path d="M92.4191 44.859C92.3531 44.859 92.288 44.8437 92.229 44.8141C92.17 44.7846 92.1186 44.7418 92.079 44.6889L91.0362 43.2986C90.9685 43.2084 90.9395 43.095 90.9554 42.9834C90.9714 42.8718 91.031 42.7711 91.1213 42.7034C91.2115 42.6358 91.3249 42.6067 91.4365 42.6227C91.5481 42.6386 91.6489 42.6983 91.7165 42.7885L92.3988 43.698L94.151 41.0699C94.1819 41.0232 94.2217 40.9831 94.2681 40.9519C94.3145 40.9207 94.3667 40.8989 94.4215 40.8878C94.4764 40.8768 94.5329 40.8767 94.5877 40.8875C94.6426 40.8983 94.6949 40.9198 94.7414 40.9509C94.788 40.9819 94.8279 41.0218 94.859 41.0683C94.8901 41.1148 94.9117 41.167 94.9226 41.2219C94.9335 41.2768 94.9335 41.3332 94.9225 41.3881C94.9115 41.443 94.8898 41.4951 94.8586 41.5416L92.773 44.6697C92.7352 44.7263 92.6845 44.773 92.625 44.8059C92.5655 44.8388 92.499 44.857 92.431 44.8589C92.427 44.859 92.4231 44.859 92.4191 44.859Z" fill="white"/>
<path d="M96.3041 52.3164C96.2932 52.3196 96.282 52.321 96.2709 52.3208L93.0888 52.2455C93.049 52.2444 93.0112 52.2213 92.9835 52.181C92.9559 52.1408 92.9408 52.0868 92.9414 52.0309C92.9421 51.975 92.9585 51.9218 92.9871 51.8829C93.0156 51.844 93.054 51.8226 93.0938 51.8234L96.2759 51.8987C96.3128 51.8996 96.3482 51.9195 96.3753 51.9548C96.4025 51.9901 96.4194 52.0381 96.4229 52.0898C96.4264 52.1415 96.4162 52.1932 96.3943 52.235C96.3724 52.2768 96.3402 52.3058 96.3041 52.3164Z" fill="#B9B9B9"/>
<path d="M97.5404 54.0596C97.5287 54.0612 97.5167 54.0619 97.5048 54.0618L94.0955 54.0241C94.0528 54.0236 94.0123 54.012 93.9827 53.9919C93.953 53.9718 93.9368 53.9448 93.9375 53.9168C93.9382 53.8889 93.9558 53.8623 93.9864 53.8428C94.017 53.8233 94.0582 53.8127 94.1008 53.8131L97.5101 53.8507C97.5497 53.8511 97.5876 53.8611 97.6167 53.8788C97.6458 53.8964 97.6639 53.9204 97.6676 53.9463C97.6714 53.9721 97.6605 53.998 97.637 54.0189C97.6135 54.0398 97.5791 54.0542 97.5404 54.0596Z" fill="#B9B9B9"/>
<path d="M264.022 126.739H262.758V127.999H264.022V126.739Z" fill="white"/>
<path d="M262.756 128.458V129.513C262.756 129.959 262.473 130.247 262.06 130.247C261.647 130.247 261.364 129.959 261.364 129.513V126.739H260.1V129.536C260.1 130.658 260.915 131.416 262.06 131.416C263.205 131.416 264.02 130.658 264.02 129.536V128.458H262.756Z" fill="white"/>
<path d="M267.353 131.301L266.065 129.285V131.301H264.828V126.739H266.065V128.662L267.252 126.739H268.687L267.249 128.949L268.821 131.301H267.353V131.301Z" fill="white"/>
<path d="M259.51 129.02C259.51 127.622 258.484 126.624 257.044 126.624C255.6 126.624 254.57 127.626 254.57 129.02C254.57 130.414 255.6 131.416 257.044 131.416C257.347 131.416 257.631 131.372 257.892 131.289L258.085 131.612L258.971 131.067L258.791 130.766C259.244 130.341 259.51 129.732 259.51 129.02ZM255.858 129.02C255.858 128.31 256.36 127.793 257.044 127.793C257.727 127.793 258.222 128.306 258.222 129.02C258.222 129.734 257.727 130.247 257.044 130.247C256.36 130.246 255.858 129.73 255.858 129.02Z" fill="white"/>
<rect y="76.2799" width="320.504" height="21.1533" rx="10.5766" fill="#4FC9F3"/>
<path d="M15.7411 78.827C22.4316 78.827 27.8553 73.4033 27.8553 66.7129C27.8553 60.0224 22.4316 54.5987 15.7411 54.5987C9.05065 54.5987 3.62695 60.0224 3.62695 66.7129C3.62695 73.4033 9.05065 78.827 15.7411 78.827Z" fill="#1C3A6A"/>
<path d="M14.6203 70.5004L9.4295 65.2373C9.26065 65.0657 9.16588 64.8332 9.16602 64.5908C9.16615 64.3484 9.26117 64.116 9.43021 63.9446C9.59925 63.7732 9.82848 63.6768 10.0675 63.6767C10.3066 63.6766 10.5359 63.7726 10.7052 63.9439L14.534 67.826L26.752 53.6992C26.9098 53.5172 27.1324 53.4062 27.3709 53.3905C27.6094 53.3748 27.8442 53.4558 28.0239 53.6155C28.2036 53.7753 28.3134 54.0009 28.3292 54.2426C28.345 54.4844 28.2655 54.7227 28.1082 54.9051L14.6203 70.5004Z" fill="white"/>
</svg>
