<svg width="526" height="237" viewBox="0 0 526 237" fill="none" xmlns="http://www.w3.org/2000/svg">
<path d="M484.092 236.228H42.7616C37.2012 236.228 31.6952 235.132 26.5581 233.005C21.421 230.877 16.7533 227.758 12.8215 223.826C8.88972 219.894 5.77085 215.227 3.64299 210.09C1.51512 204.952 0.419922 199.446 0.419922 193.886C0.419922 188.326 1.51512 182.82 3.64299 177.683C5.77085 172.545 8.88972 167.878 12.8215 163.946C16.7533 160.014 21.421 156.895 26.5581 154.767C31.6952 152.64 37.2012 151.544 42.7616 151.544H483.114C487.434 151.544 491.576 149.829 494.63 146.775C497.684 143.72 499.4 139.578 499.4 135.259C499.4 130.94 497.684 126.798 494.63 123.744C491.576 120.69 487.434 118.974 483.114 118.974H28.1048V92.9175H483.114C494.344 92.9175 505.114 97.3785 513.055 105.319C520.995 113.26 525.456 124.029 525.456 135.259C525.456 146.489 520.995 157.259 513.055 165.199C505.114 173.14 494.344 177.601 483.114 177.601H42.7616C38.4424 177.601 34.3002 179.317 31.2462 182.371C28.1921 185.425 26.4763 189.567 26.4763 193.886C26.4763 198.205 28.1921 202.347 31.2462 205.401C34.3002 208.456 38.4424 210.171 42.7616 210.171H484.092V236.228Z" fill="#1B99C5"/>
<path d="M64.5843 105.294H44.3906V106.597H64.5843V105.294Z" fill="white"/>
<path d="M121.907 105.294H101.713V106.597H121.907V105.294Z" fill="white"/>
<path d="M179.233 105.294H159.039V106.597H179.233V105.294Z" fill="white"/>
<path d="M236.557 105.294H216.363V106.597H236.557V105.294Z" fill="white"/>
<path d="M293.879 105.294H273.686V106.597H293.879V105.294Z" fill="white"/>
<path d="M351.205 105.294H331.012V106.597H351.205V105.294Z" fill="white"/>
<path d="M408.526 105.294H388.332V106.597H408.526V105.294Z" fill="white"/>
<path d="M465.852 105.294H445.658V106.597H465.852V105.294Z" fill="white"/>
<path d="M64.5843 163.921H44.3906V165.224H64.5843V163.921Z" fill="white"/>
<path d="M121.907 163.921H101.713V165.224H121.907V163.921Z" fill="white"/>
<path d="M179.233 163.921H159.039V165.224H179.233V163.921Z" fill="white"/>
<path d="M236.557 163.921H216.363V165.224H236.557V163.921Z" fill="white"/>
<path d="M293.879 163.921H273.686V165.224H293.879V163.921Z" fill="white"/>
<path d="M351.205 163.921H331.012V165.224H351.205V163.921Z" fill="white"/>
<path d="M408.526 163.921H388.332V165.224H408.526V163.921Z" fill="white"/>
<path d="M465.852 163.921H445.658V165.224H465.852V163.921Z" fill="white"/>
<path d="M64.5843 222.548H44.3906V223.851H64.5843V222.548Z" fill="white"/>
<path d="M121.907 222.548H101.713V223.851H121.907V222.548Z" fill="white"/>
<path d="M179.233 222.548H159.039V223.851H179.233V222.548Z" fill="white"/>
<path d="M236.557 222.548H216.363V223.851H236.557V222.548Z" fill="white"/>
<path d="M293.879 222.548H273.686V223.851H293.879V222.548Z" fill="white"/>
<path d="M351.205 222.548H331.012V223.851H351.205V222.548Z" fill="white"/>
<path d="M408.526 222.548H388.332V223.851H408.526V222.548Z" fill="white"/>
<path d="M465.852 222.548H445.658V223.851H465.852V222.548Z" fill="white"/>
<path d="M446.32 218.019L457.965 218.025L457.966 216.177L446.321 216.171L446.32 218.019Z" fill="#3F3D56"/>
<path d="M362.131 216.588L364.533 217.144L455.84 217.192L456.661 215.279C458.093 211.998 458.585 208.383 458.081 204.839C457.688 202.197 456.702 199.571 454.464 198.431L450.412 171.444L399.897 171.353L380.353 187.117C380.353 187.117 371.133 186.951 366.125 193.186C364.318 195.505 363.251 198.314 363.063 201.247L362.866 204.491L362.131 216.588Z" fill="#1C3A6A"/>
<path d="M382.185 227.411C388.412 227.411 393.46 222.363 393.46 216.136C393.46 209.909 388.412 204.862 382.185 204.862C375.958 204.862 370.91 209.909 370.91 216.136C370.91 222.363 375.958 227.411 382.185 227.411Z" fill="#3F3D56"/>
<path d="M382.186 222.07C385.463 222.07 388.12 219.414 388.12 216.136C388.12 212.859 385.463 210.202 382.186 210.202C378.909 210.202 376.252 212.859 376.252 216.136C376.252 219.414 378.909 222.07 382.186 222.07Z" fill="#CCCCCC"/>
<path d="M437.82 227.441C444.047 227.441 449.094 222.393 449.094 216.166C449.094 209.939 444.047 204.891 437.82 204.891C431.593 204.891 426.545 209.939 426.545 216.166C426.545 222.393 431.593 227.441 437.82 227.441Z" fill="#3F3D56"/>
<path d="M437.819 222.1C441.096 222.1 443.753 219.443 443.753 216.166C443.753 212.889 441.096 210.232 437.819 210.232C434.542 210.232 431.885 212.889 431.885 216.166C431.885 219.443 434.542 222.1 437.819 222.1Z" fill="#CCCCCC"/>
<path d="M388.117 185.274L415.391 185.286H418.721L424.342 185.29V184.88L424.346 179.937L424.35 174.386H420.61L417.281 174.383L411.383 174.379H408.054L401.245 174.374L388.117 185.274Z" fill="white"/>
<path d="M428.779 185.294L443.194 185.302L443.197 182.474V177.53L443.201 174.398H441.091L437.761 174.394L428.783 174.391L428.779 185.294Z" fill="white"/>
<path d="M422.488 196.935L424.336 196.936L424.338 193.425L422.49 193.424L422.488 196.935Z" fill="#3F3D56"/>
<path d="M395.507 190.267L395.508 188.419L391.996 188.417L391.995 190.265L395.507 190.267Z" fill="#3F3D56"/>
<path d="M394.215 189.231L394.012 189.231C393.504 189.231 393.002 189.131 392.533 188.936C392.065 188.742 391.639 188.457 391.281 188.098C390.922 187.739 390.638 187.313 390.444 186.844C390.25 186.376 390.15 185.873 390.151 185.366C390.151 184.859 390.251 184.356 390.445 183.888C390.64 183.419 390.925 182.994 391.283 182.635C391.642 182.277 392.068 181.992 392.537 181.798C393.006 181.604 393.508 181.505 394.016 181.505L394.219 181.505L394.215 189.231Z" fill="#3F3D56"/>
<path d="M362.863 204.491C364.261 204.643 365.668 204.297 366.835 203.513C368.003 202.73 368.857 201.56 369.246 200.209C369.636 198.858 369.536 197.413 368.964 196.128C368.393 194.844 367.387 193.802 366.122 193.186C364.316 195.505 363.249 198.314 363.061 201.247L362.863 204.491Z" fill="#3F3D56"/>
<path d="M417.281 174.383L424.342 184.88L424.347 179.937L420.611 174.387L417.281 174.383Z" fill="#F2F2F2"/>
<path d="M437.762 174.394L443.198 182.474V177.53L441.091 174.398L437.762 174.394Z" fill="#F2F2F2"/>
<path d="M408.055 174.379L415.392 185.286H418.722L411.384 174.379H408.055Z" fill="#F2F2F2"/>
<path d="M210.591 85.4847C208.257 86.5046 205.482 86.9137 202.774 87.3025C187.836 89.4541 172.85 91.6099 157.637 92.4354C154.024 92.6327 150.398 92.7474 146.76 92.7793C146.517 92.7807 146.275 92.7822 146.032 92.7822C145.251 92.7851 144.47 92.7836 143.688 92.7778C133.053 92.6951 122.451 91.7724 112.323 89.589C108.012 88.6605 103.747 87.4853 100.143 85.6124C97.2933 84.1311 94.8745 82.1682 93.5533 79.9049C93.2083 79.3224 92.9376 78.699 92.7475 78.0494C92.5932 77.515 92.4992 76.9652 92.4673 76.41C92.4542 76.2098 92.4498 76.0096 92.4557 75.8108C92.4676 75.2262 92.5391 74.6443 92.6691 74.0742C93.0524 72.355 93.922 70.6619 95.0269 69.0196C95.0327 69.0124 95.0371 69.0037 95.0429 68.9964C95.1721 68.8035 95.3052 68.6115 95.4422 68.4205C95.5118 68.3218 95.583 68.2231 95.6541 68.1259C96.5441 66.9015 97.5445 65.7075 98.5448 64.557C99.3767 63.5995 100.222 62.6231 101.023 61.6293C101.183 61.4305 101.341 61.2308 101.498 61.0301C102.123 60.2359 102.708 59.4103 103.249 58.5565C103.31 58.4579 103.371 58.3592 103.43 58.2606C103.605 57.9718 103.77 57.6817 103.925 57.3901C104.469 56.3993 104.876 55.3392 105.133 54.239C105.178 54.0402 105.216 53.84 105.245 53.6398C105.374 52.8278 105.377 52.0008 105.254 51.1879C105.242 51.1096 105.229 51.0312 105.213 50.9544C104.995 49.7691 104.508 48.6345 103.876 47.5247C103.748 47.2984 103.613 47.0735 103.474 46.8486C103.433 46.7833 103.394 46.7195 103.352 46.6542C103.266 46.5193 103.179 46.3844 103.091 46.2494C101.97 44.5506 100.625 42.8894 99.5408 41.176C99.1856 40.622 98.8609 40.049 98.568 39.4597C98.4707 39.261 98.3778 39.0608 98.2936 38.8605C98.1038 38.423 97.9452 37.9726 97.8189 37.5128C97.5344 36.4615 97.4614 35.3644 97.604 34.2847V34.2833C97.7048 33.5238 97.9009 32.78 98.1876 32.0694C98.2689 31.8677 98.356 31.6675 98.4519 31.4702C99.0735 30.195 99.9194 29.0416 100.949 28.0652C101.749 27.298 102.633 26.623 103.584 26.0529C103.692 25.9862 103.802 25.9224 103.912 25.8585C104.224 25.6786 104.543 25.5084 104.869 25.3479C104.981 25.2898 105.093 25.2347 105.205 25.1825C105.88 24.8606 106.572 24.5739 107.278 24.3236C107.356 24.2946 107.435 24.267 107.514 24.2409C107.68 24.1829 107.847 24.1277 108.014 24.0741C108.307 23.9783 108.605 23.8898 108.905 23.8057C115.079 22.0589 122.531 22.3201 129.263 23.2094C129.886 23.2921 130.51 23.3786 131.133 23.4691C131.621 23.5373 132.109 23.6098 132.598 23.6838C134.524 23.9725 136.45 24.2801 138.38 24.5659C139.895 24.7908 141.413 25.0026 142.931 25.1825C145.668 25.5269 148.424 25.709 151.182 25.728C152.596 25.728 154.012 25.6714 155.429 25.5394C156.378 25.4509 157.319 25.3319 158.25 25.1825C160.78 24.7647 163.284 24.2023 165.75 23.4981C167.292 23.0716 168.818 22.6146 170.337 22.159C171.108 21.9269 171.881 21.6962 172.657 21.467C173.412 21.2436 174.169 21.0255 174.929 20.8127C176.217 20.4529 177.515 20.1148 178.827 19.8131C180.935 19.3175 183.072 18.957 185.226 18.7337C185.609 18.696 185.995 18.6641 186.383 18.6379C186.943 18.6002 187.506 18.576 188.071 18.5654C188.774 18.5494 189.478 18.5552 190.179 18.5857C190.381 18.593 190.582 18.6031 190.783 18.6147C191.109 18.635 191.432 18.6597 191.755 18.6887C191.794 18.6916 191.832 18.696 191.869 18.6989C192.54 18.7627 193.204 18.8483 193.855 18.9571C195.632 19.2358 197.366 19.7389 199.015 20.4543L199.02 20.4558C199.416 20.6313 199.8 20.8214 200.173 21.0259C200.858 21.4003 201.503 21.8437 202.098 22.3491C202.616 22.7874 203.087 23.2796 203.502 23.8173C203.571 23.9072 203.638 23.9986 203.701 24.09C205.176 26.1806 205.463 28.6339 203.959 30.6955L204.019 30.1094C203.847 30.562 203.674 31.0161 203.505 31.4702C203.429 31.669 203.354 31.8692 203.28 32.0694C202.933 32.995 202.592 33.9249 202.257 34.8593V34.8651C202.153 35.1538 202.051 35.4367 201.951 35.7268V35.7326C201.585 36.7729 201.234 37.8131 200.903 38.8605C200.84 39.0593 200.777 39.2595 200.716 39.4597C200.64 39.7049 200.566 39.9501 200.492 40.1953C200.416 40.4463 200.342 40.6982 200.27 40.9511C200.241 41.0512 200.213 41.1528 200.184 41.2544C199.712 42.917 199.304 44.5839 198.986 46.2494C198.947 46.4496 198.911 46.6499 198.875 46.8486C198.856 46.956 198.837 47.0648 198.818 47.1721C198.798 47.2897 198.779 47.4072 198.76 47.5247C198.421 49.5455 198.25 51.5908 198.249 53.6398C198.249 53.84 198.252 54.0402 198.256 54.239C198.28 55.2931 198.363 56.345 198.503 57.3901C198.542 57.6802 198.586 57.9704 198.635 58.2606C198.792 59.1948 199.002 60.1195 199.264 61.0301C199.32 61.2303 199.381 61.4305 199.444 61.6293C199.931 63.1749 200.569 64.6687 201.35 66.089C201.729 66.7782 202.145 67.4571 202.597 68.1259C202.664 68.2246 202.731 68.3233 202.799 68.4205C202.933 68.6134 203.07 68.8054 203.211 68.9964C203.217 69.0037 203.223 69.0124 203.229 69.0196C204.606 70.8736 206.185 72.5688 207.937 74.0742C208.583 74.6357 209.259 75.1802 209.964 75.7078C210.009 75.7412 210.055 75.776 210.1 75.8108C210.368 76.0081 210.641 76.2083 210.912 76.41C212.339 77.4691 213.753 78.5862 214.315 79.9049C214.437 80.1841 214.517 80.4799 214.552 80.7827C214.762 82.6803 212.926 84.4633 210.591 85.4847Z" fill="#1C3A6A"/>
<path d="M172.148 0.778953C172.02 0.669396 171.884 0.570252 171.74 0.48249V0.481035C171.727 0.47243 171.713 0.464666 171.699 0.457785C171.536 0.358886 171.363 0.27521 171.184 0.207824C170.819 0.0696243 170.432 -0.000824156 170.042 7.27424e-06H134.587C133.732 0.00100725 132.913 0.338171 132.308 0.93754C131.704 1.53691 131.364 2.34954 131.363 3.19717V72.2269C131.363 72.5518 131.413 72.8748 131.511 73.1846C131.522 73.218 131.533 73.2514 131.545 73.2834C131.554 73.3096 131.563 73.3343 131.573 73.359C131.621 73.487 131.678 73.6114 131.744 73.731C131.775 73.7877 131.807 73.8429 131.841 73.8981C131.872 73.949 131.904 73.997 131.939 74.0449C131.955 74.0696 131.973 74.0943 131.992 74.119C131.994 74.1236 131.997 74.1276 132.001 74.1307C132.031 74.1728 132.064 74.215 132.099 74.2557C132.153 74.3211 132.21 74.385 132.269 74.4446C132.308 74.4867 132.349 74.526 132.39 74.5638C132.986 75.1166 133.771 75.4241 134.587 75.4241H170.042C170.897 75.4236 171.717 75.0867 172.321 74.4872C172.925 73.8877 173.265 73.0747 173.266 72.2269V3.19717C173.266 2.73803 173.166 2.28426 172.973 1.86689C172.78 1.44953 172.499 1.07842 172.148 0.778953Z" fill="white"/>
<path d="M170.576 37.1248H170.572C170.477 37.122 170.382 37.1248 170.288 37.1248H165.381C165.109 37.1097 164.837 37.1097 164.565 37.1248C164.392 37.1366 164.225 37.1913 164.08 37.2838C163.959 37.3658 163.861 37.4752 163.793 37.6026C163.725 37.73 163.688 37.8718 163.688 38.0159C163.692 38.2543 163.792 38.4814 163.965 38.6481C164.138 38.8148 164.37 38.9077 164.612 38.9069C164.751 38.9097 164.892 38.9069 165.031 38.9069H169.978C170.503 38.9069 171.107 38.9727 171.384 38.4066C171.448 38.2708 171.477 38.1214 171.468 37.9718C171.459 37.8223 171.412 37.6773 171.332 37.5501C171.251 37.4228 171.14 37.3173 171.008 37.243C170.876 37.1688 170.728 37.1281 170.576 37.1248Z" fill="#CCCCCC"/>
<path d="M167.579 44.8953C168.405 44.8953 169.075 44.2253 169.075 43.3988C169.075 42.5723 168.405 41.9023 167.579 41.9023C166.752 41.9023 166.082 42.5723 166.082 43.3988C166.082 44.2253 166.752 44.8953 167.579 44.8953Z" fill="#CCCCCC"/>
<path d="M167.878 43.6982C168.209 43.6982 168.477 43.5642 168.477 43.3989C168.477 43.2336 168.209 43.0995 167.878 43.0995C167.547 43.0995 167.279 43.2336 167.279 43.3989C167.279 43.5642 167.547 43.6982 167.878 43.6982Z" fill="#F2F2F2"/>
<path d="M133.981 59.5591C133.473 60.0591 133.071 60.6534 132.797 61.3079C132.523 61.9624 132.382 62.664 132.383 63.3724C132.383 64.2536 132.737 65.0987 133.367 65.7218C133.997 66.3449 134.852 66.695 135.743 66.6951H170.927C171.468 66.6951 171.637 67.0419 171.272 67.4362C171.139 67.5787 170.997 67.5556 170.854 67.5585C170.207 67.57 169.556 67.5585 168.907 67.5585H137.836C137.12 67.5586 136.411 67.6981 135.749 67.9693C135.088 68.2404 134.486 68.6378 133.98 69.1388C133.474 69.6398 133.072 70.2345 132.798 70.889C132.524 71.5435 132.383 72.245 132.383 72.9534V74.8255C131.978 74.4527 131.677 73.9821 131.51 73.4599V73.1347C131.51 72.707 131.461 72.2806 131.363 71.864V63.3998C131.461 63.0321 131.511 62.6533 131.51 62.2731C131.511 61.8985 131.461 61.5254 131.363 61.1636V53.8203C131.461 53.4526 131.511 53.0739 131.51 52.6936C131.511 52.319 131.461 51.946 131.363 51.5841V44.2394C131.461 43.8717 131.511 43.493 131.51 43.1127V37.1135H132.383V40.475C132.383 42.3473 133.135 44.143 134.474 45.4669C135.813 46.7908 137.628 47.5347 139.521 47.5347H170.93C171.471 47.5347 171.641 47.8816 171.275 48.2758C171.141 48.4183 170.997 48.3967 170.854 48.3982C170.207 48.4097 169.556 48.3982 168.907 48.3982H137.836C136.39 48.3985 135.003 48.967 133.98 49.9787C132.958 50.9904 132.383 52.3624 132.383 53.793C132.383 54.6742 132.737 55.5193 133.367 56.1423C133.997 56.7654 134.852 57.1155 135.743 57.1157H170.927C171.468 57.1157 171.637 57.461 171.272 57.8567C171.139 57.9992 170.997 57.9762 170.854 57.9791C170.207 57.9906 169.556 57.9791 168.907 57.9791H137.836C137.12 57.9779 136.411 58.1169 135.749 58.3881C135.087 58.6593 134.486 59.0572 133.981 59.5591Z" fill="white"/>
<path d="M171.275 20.0577C171.143 20.2018 171 20.1785 170.858 20.1814C170.21 20.1931 169.56 20.1814 168.911 20.1814H137.837C137.121 20.1815 136.411 20.3227 135.75 20.5971C135.088 20.8715 134.487 21.2737 133.98 21.7807C133.474 22.2877 133.072 22.8896 132.798 23.5519C132.524 24.2143 132.383 24.9242 132.383 25.6411V27.5358C131.978 27.1584 131.677 26.6822 131.51 26.1537V25.8246C131.51 25.3918 131.461 24.9603 131.363 24.5387V15.9727C131.461 15.6006 131.511 15.2173 131.51 14.8325C131.511 14.4534 131.461 14.0758 131.363 13.7096V3.20387C131.364 2.35446 131.702 1.54013 132.302 0.939506C132.902 0.338882 133.716 0.00100936 134.565 7.29064e-06H169.778C170.165 -0.000825948 170.55 0.0697701 170.912 0.20826C171.09 0.275783 171.261 0.359634 171.424 0.458744C171.386 0.53527 171.337 0.60552 171.278 0.666994C171.144 0.811168 171 0.789324 170.858 0.790781C170.21 0.802431 169.56 0.790781 168.911 0.790781H137.837C136.39 0.79109 135.003 1.36645 133.98 2.39031C132.958 3.41418 132.383 4.80269 132.383 6.25046C132.383 7.14224 132.737 7.99747 133.368 8.62806C133.998 9.25864 134.852 9.61295 135.743 9.61306H170.931C171.472 9.61306 171.641 9.96257 171.275 10.3631C171.143 10.5072 171 10.4839 170.858 10.4868C170.21 10.4985 169.56 10.4868 168.911 10.4868H137.837C136.391 10.4872 135.004 11.0623 133.981 12.0859C132.958 13.1094 132.384 14.4975 132.383 15.9451C132.383 16.8368 132.737 17.6921 133.368 18.3227C133.998 18.9532 134.852 19.3076 135.743 19.3077H170.931C171.472 19.3077 171.641 19.6586 171.275 20.0577Z" fill="white"/>
<path d="M167.279 20.0533C167.279 20.8148 167.215 21.5751 167.088 22.3268C167.034 22.6436 166.97 22.9567 166.894 23.266C166.866 23.3797 166.837 23.4933 166.806 23.6056C166.708 23.9679 166.594 24.326 166.467 24.6755C165.257 28.0073 162.787 30.7818 159.546 32.4494C159.337 32.5589 159.124 32.6626 158.909 32.7606C158.636 32.8857 158.359 33.0022 158.078 33.1102C157.912 33.1741 157.745 33.2352 157.576 33.2935C154.569 34.3262 151.293 34.3935 148.243 33.4853C148.093 33.4413 147.947 33.3944 147.8 33.3446C147.498 33.2452 147.201 33.1362 146.91 33.0178C146.714 32.9382 146.522 32.8558 146.332 32.7677C144.574 31.9668 142.999 30.839 141.699 29.45C140.399 28.0609 139.399 26.438 138.758 24.6755C138.632 24.3246 138.518 23.9679 138.42 23.6056C138.389 23.4933 138.361 23.3797 138.332 23.266C138.257 22.9562 138.192 22.6431 138.138 22.3268C137.63 19.3318 138.142 16.2594 139.598 13.5653C139.606 13.5497 139.615 13.5326 139.624 13.517C139.865 13.0774 140.13 12.6506 140.418 12.2382L140.476 12.1572C141.946 10.0793 143.968 8.41538 146.332 7.33739C146.523 7.25071 146.716 7.16687 146.91 7.08872C147.193 6.97505 147.479 6.86848 147.77 6.77186C147.926 6.71928 148.084 6.66955 148.243 6.62124C151.293 5.71306 154.569 5.78038 157.576 6.81306C157.755 6.87416 157.933 6.93953 158.109 7.00773C158.38 7.11288 158.647 7.22561 158.909 7.34591C159.124 7.44396 159.336 7.54721 159.546 7.65567C161.634 8.73087 163.42 10.2754 164.75 12.1572L164.808 12.2382C165.096 12.6506 165.361 13.0774 165.602 13.517C165.611 13.5326 165.62 13.5497 165.629 13.5653C166.716 15.5685 167.283 17.7946 167.279 20.0533Z" fill="#4FC9F3"/>
<path d="M210.591 85.5442C208.257 86.5557 205.482 86.9615 202.774 87.3472C187.836 89.4811 172.85 91.6194 157.637 92.4382C154.024 92.6339 150.398 92.7475 146.76 92.7792C146.517 92.7806 146.275 92.7821 146.032 92.7821C145.251 92.785 144.47 92.7835 143.688 92.7778C133.053 92.6958 122.451 91.7806 112.323 89.615C108.012 88.694 103.747 87.5285 100.143 85.6708C97.2933 84.2016 94.8745 82.2547 93.5533 80.01C93.2083 79.4322 92.9376 78.8139 92.7475 78.1695C92.5932 77.6396 92.4992 77.0942 92.4673 76.5435C92.4542 76.3449 92.4498 76.1464 92.4557 75.9492C92.4676 75.3694 92.5391 74.7923 92.6691 74.2268H207.937C208.583 74.7837 209.259 75.3238 209.964 75.8471C210.009 75.8802 210.055 75.9147 210.1 75.9492C210.368 76.1449 210.641 76.3435 210.912 76.5435C212.339 77.594 213.753 78.7019 214.315 80.01C214.437 80.2868 214.517 80.5802 214.552 80.8805C214.762 82.7627 212.926 84.5311 210.591 85.5442Z" fill="black"/>
<path d="M219.546 81.4662C216.846 80.4546 213.636 80.0488 210.503 79.6632C193.222 77.5292 175.885 75.3909 158.286 74.5722C154.105 74.3765 149.911 74.2628 145.702 74.2311C145.422 74.2297 145.141 74.2283 144.861 74.2283C143.957 74.2254 143.053 74.2268 142.148 74.2326C129.845 74.3146 117.581 75.2298 105.864 77.3954C100.877 78.3163 95.9422 79.4819 91.7734 81.3396C88.4763 82.8087 85.6781 84.7556 84.1497 87.0004C83.7506 87.5782 83.4374 88.1964 83.2175 88.8408C83.039 89.3708 82.9303 89.9162 82.8933 90.4668C82.8782 90.6654 82.8731 90.864 82.8799 91.0611C82.8937 91.6409 82.9764 92.2181 83.1268 92.7835H216.476C217.224 92.2267 218.005 91.6866 218.821 91.1633C218.873 91.1302 218.927 91.0956 218.979 91.0611C219.288 90.8654 219.604 90.6668 219.918 90.4668C221.569 89.4164 223.205 88.3084 223.855 87.0004C223.996 86.7235 224.088 86.4301 224.128 86.1298C224.372 84.2477 222.247 82.4792 219.546 81.4662Z" fill="black"/>
<path d="M173.26 78.7719C173.26 78.5699 173.273 78.3655 173.259 78.1635C173.24 77.9102 173.11 77.6723 172.896 77.4975C172.681 77.3227 172.397 77.2239 172.101 77.221C171.952 77.2185 171.804 77.221 171.656 77.221H132.611C132.45 77.2148 132.289 77.2367 132.138 77.2854C131.987 77.3342 131.85 77.4087 131.734 77.5044C131.617 77.6001 131.525 77.7151 131.462 77.8423C131.4 77.9696 131.368 78.1064 131.369 78.2445C131.361 78.9714 131.369 79.6982 131.369 80.4251V81.6918C131.369 81.8963 131.353 82.1082 131.376 82.3127C131.407 82.5569 131.542 82.7827 131.755 82.9473C131.968 83.1118 132.244 83.2037 132.531 83.2053C132.577 83.2066 132.625 83.2053 132.672 83.2053H172.105C172.415 83.2009 172.711 83.0916 172.927 82.9012C173.143 82.7109 173.263 82.455 173.26 82.1892C173.263 81.9299 173.26 81.6693 173.26 81.4088V78.7719Z" fill="#B9B9B9"/>
<path d="M170.571 39.5079C171.397 39.5079 172.067 38.9719 172.067 38.3107C172.067 37.6495 171.397 37.1135 170.571 37.1135C169.744 37.1135 169.074 37.6495 169.074 38.3107C169.074 38.9719 169.744 39.5079 170.571 39.5079Z" fill="#CCCCCC"/>
<path d="M182.096 68.4286C182.093 68.073 181.964 67.7296 181.731 67.4594C181.498 67.1892 181.175 67.0097 180.821 66.9526L159.038 63.4059C158.829 63.3716 158.615 63.381 158.41 63.4335L153.305 64.7424L150.376 65.4942L144.97 66.8797C144.644 66.9637 144.355 67.1528 144.148 67.4172C143.942 67.6816 143.83 68.0064 143.83 68.3406V90.9728C143.832 91.3178 143.952 91.652 144.171 91.9201C144.39 92.1882 144.695 92.3743 145.035 92.4475L167.223 92.1984C167.327 92.2206 167.433 92.2316 167.54 92.2311C167.695 92.2314 167.849 92.2081 167.998 92.162L181.18 92.4872C181.491 92.3909 181.763 92.1978 181.954 91.9364C182.146 91.6751 182.248 91.3594 182.244 91.0363L182.096 68.4286Z" fill="white"/>
<path d="M182.096 68.4281C182.093 68.0725 181.964 67.7291 181.731 67.459C181.498 67.1888 181.175 67.0093 180.821 66.9522L159.038 63.4059C158.829 63.3716 158.615 63.381 158.41 63.4335L153.305 64.7422L150.376 65.494L144.97 66.8793C144.644 66.9633 144.355 67.1524 144.148 67.4167C143.942 67.6811 143.83 68.0058 143.83 68.3401V90.9697C143.832 91.3147 143.952 91.6488 144.171 91.9169C144.39 92.185 144.695 92.3711 145.035 92.4443L167.223 92.1952C167.327 92.2174 167.433 92.2284 167.54 92.2279C167.695 92.2282 167.849 92.2049 167.998 92.1588L181.18 92.484C181.491 92.3877 181.763 92.1946 181.954 91.9333C182.146 91.6719 182.248 91.3563 182.244 91.0332L182.096 68.4281ZM181.066 92.1244L167.883 92.4353C167.695 92.4934 167.496 92.5029 167.303 92.4629L145.113 92.076C144.858 92.0209 144.63 91.8813 144.466 91.6801C144.302 91.479 144.212 91.2284 144.21 90.9697V68.3401C144.211 68.1084 144.282 67.8824 144.416 67.6924C144.55 67.5025 144.739 67.3578 144.959 67.2778C144.993 67.2649 145.029 67.2539 145.065 67.2451L150.784 65.7793L154.166 64.9119L158.505 63.7994C158.598 63.7747 158.694 63.7625 158.79 63.7629C158.852 63.7629 158.914 63.7679 158.976 63.778L180.759 67.3243C180.934 67.3528 181.101 67.4214 181.245 67.5246C181.388 67.6278 181.506 67.7628 181.588 67.919C181.671 68.0772 181.714 68.2525 181.715 68.4306L181.864 91.0358C181.866 91.2781 181.79 91.5149 181.647 91.711C181.503 91.9071 181.299 92.0521 181.066 92.1244Z" fill="#CCCCCC"/>
<path d="M181.375 68.0138C181.36 68.0237 181.344 68.0311 181.327 68.0358L174.879 69.8024L172.873 70.3521L167.164 71.9156C167.148 71.9197 167.131 71.9219 167.114 71.9221C167.103 71.9219 167.091 71.921 167.08 71.9195L144.063 67.6659L143.987 67.6517C143.937 67.6422 143.893 67.613 143.864 67.5707C143.835 67.5283 143.824 67.4761 143.833 67.4255C143.842 67.3749 143.871 67.33 143.912 67.3007C143.954 67.2713 144.006 67.2599 144.055 67.2688L144.519 67.3542L167.107 71.5289L172.027 70.1813L174.779 69.4273L181.126 67.6879L181.227 67.6607C181.271 67.6491 181.317 67.6533 181.358 67.6727C181.398 67.6921 181.431 67.7254 181.45 67.7668C181.455 67.7767 181.459 67.7871 181.462 67.7978C181.472 67.8385 181.47 67.8815 181.454 67.9204C181.438 67.9594 181.411 67.9921 181.375 68.0138Z" fill="#CCCCCC"/>
<path d="M167.374 92.4188C167.303 92.4188 167.245 92.3342 167.245 92.8753L167.115 71.986C167.115 71.2337 167.172 71.1471 167.243 71.1461H167.245C167.315 71.1461 167.373 71.2307 167.374 71.9825L167.503 92.8718C167.504 92.3312 167.446 92.4178 167.375 92.4188H167.374Z" fill="#CCCCCC"/>
<path d="M174.874 92.8535L172.824 92.8752L171.982 70.2495L150.512 65.9955C150.491 65.9918 150.47 65.9867 150.45 65.9804C150.285 65.9336 150.141 65.8324 150.041 65.6935L152.973 64.9377L153.835 65.1083L174.207 69.1437C174.314 69.1647 174.416 69.2086 174.504 69.2723C174.593 69.336 174.666 69.418 174.72 69.5127C174.784 69.6226 174.873 92.7221 174.874 92.8535Z" fill="#CCCCCC"/>
<path d="M144.996 72.6982C148.211 72.6982 150.816 70.0923 150.816 66.8779C150.816 63.6634 148.211 61.0576 144.996 61.0576C141.782 61.0576 139.176 63.6634 139.176 66.8779C139.176 70.0923 141.782 72.6982 144.996 72.6982Z" fill="#1C3A6A"/>
<path d="M144.181 69.9821C144.078 69.9821 143.976 69.9581 143.884 69.912C143.792 69.866 143.712 69.7991 143.65 69.7167L142.023 67.5478C141.918 67.407 141.872 67.2302 141.897 67.056C141.922 66.8819 142.015 66.7248 142.156 66.6192C142.297 66.5137 142.474 66.4684 142.648 66.4933C142.822 66.5181 142.979 66.6112 143.085 66.7519L144.149 68.1708L146.883 64.0708C146.931 63.998 146.993 63.9355 147.065 63.8868C147.138 63.838 147.219 63.8041 147.305 63.7868C147.39 63.7696 147.478 63.7694 147.564 63.7863C147.649 63.8031 147.731 63.8367 147.804 63.8851C147.876 63.9335 147.939 63.9958 147.987 64.0684C148.036 64.1409 148.069 64.2223 148.086 64.308C148.103 64.3936 148.103 64.4817 148.086 64.5672C148.069 64.6528 148.035 64.7342 147.986 64.8066L144.733 69.6867C144.674 69.775 144.595 69.8478 144.502 69.8992C144.409 69.9505 144.305 69.9789 144.199 69.9819C144.193 69.982 144.187 69.9821 144.181 69.9821Z" fill="white"/>
<path d="M150.242 81.6157C150.225 81.6207 150.208 81.623 150.19 81.6226L145.226 81.5051C145.164 81.5035 145.105 81.4673 145.062 81.4046C145.019 81.3418 144.995 81.2576 144.996 81.1704C144.997 81.0832 145.023 81.0001 145.067 80.9394C145.112 80.8787 145.172 80.8454 145.234 80.8466L150.198 80.9641C150.256 80.9655 150.311 80.9966 150.353 81.0516C150.395 81.1066 150.422 81.1816 150.427 81.2622C150.433 81.3429 150.417 81.4235 150.383 81.4887C150.349 81.5539 150.298 81.5991 150.242 81.6157Z" fill="#B9B9B9"/>
<path d="M152.169 84.3353C152.151 84.3377 152.133 84.3389 152.114 84.3387L146.795 84.28C146.729 84.2791 146.665 84.2611 146.619 84.2297C146.573 84.1983 146.548 84.1562 146.549 84.1126C146.55 84.069 146.577 84.0275 146.625 83.9971C146.673 83.9668 146.737 83.9501 146.804 83.9507L152.122 84.0094C152.184 84.0101 152.243 84.0257 152.289 84.0532C152.334 84.0807 152.362 84.1182 152.368 84.1585C152.374 84.1988 152.357 84.2391 152.32 84.2717C152.284 84.3044 152.23 84.327 152.169 84.3353Z" fill="#B9B9B9"/>
<path d="M411.89 197.719H409.918V199.684H411.89V197.719Z" fill="white"/>
<path d="M409.917 200.4V202.045C409.917 202.741 409.476 203.19 408.832 203.19C408.187 203.19 407.746 202.741 407.746 202.045V197.719H405.773V202.082C405.773 203.832 407.046 205.014 408.832 205.014C410.618 205.014 411.89 203.832 411.89 202.082V200.4H409.917Z" fill="white"/>
<path d="M417.087 204.834L415.078 201.691V204.834H413.148V197.719H415.078V200.718L416.93 197.719H419.168L416.925 201.166L419.378 204.835H417.087V204.834Z" fill="white"/>
<path d="M404.851 201.277C404.851 199.096 403.25 197.539 401.004 197.539C398.752 197.539 397.145 199.102 397.145 201.277C397.145 203.452 398.752 205.014 401.004 205.014C401.476 205.014 401.92 204.946 402.326 204.817L402.628 205.321L404.01 204.47L403.73 204.001C404.435 203.337 404.851 202.388 404.851 201.277ZM399.154 201.277C399.154 200.169 399.937 199.363 401.003 199.363C402.07 199.363 402.842 200.163 402.842 201.277C402.842 202.39 402.07 203.19 401.003 203.19C399.937 203.19 399.154 202.384 399.154 201.277Z" fill="white"/>
<rect y="119" width="500" height="33" rx="16.5" fill="#4FC9F3"/>
<path d="M24.5588 122.974C34.9962 122.974 43.4574 114.512 43.4574 104.075C43.4574 93.6376 34.9962 85.1764 24.5588 85.1764C14.1214 85.1764 5.66016 93.6376 5.66016 104.075C5.66016 114.512 14.1214 122.974 24.5588 122.974Z" fill="#1C3A6A"/>
<path d="M22.8116 109.984L14.7138 101.773C14.4504 101.505 14.3025 101.143 14.3027 100.764C14.3029 100.386 14.4512 100.024 14.7149 99.7563C14.9786 99.4889 15.3362 99.3386 15.7091 99.3384C16.0821 99.3382 16.4399 99.4881 16.7039 99.7552L22.677 105.812L41.7376 83.7731C41.9838 83.4892 42.331 83.316 42.7031 83.2916C43.0751 83.2671 43.4416 83.3933 43.7219 83.6426C44.0022 83.8918 44.1735 84.2437 44.1981 84.6209C44.2228 84.9981 44.0988 85.3698 43.8534 85.6544L22.8116 109.984Z" fill="white"/>
</svg>
