<svg width="78" height="73" viewBox="0 0 78 73" fill="none" xmlns="http://www.w3.org/2000/svg">
<path d="M76.0512 44.2415H71.0821L69.5465 39.4593C69.457 39.2029 69.291 38.9809 69.0715 38.8238C68.8521 38.6668 68.5899 38.5825 68.3211 38.5825C68.0523 38.5825 67.7901 38.6668 67.5707 38.8238C67.3512 38.9809 67.1852 39.2029 67.0957 39.4593L65.56 44.2415H60.5909C60.3222 44.2484 60.0622 44.3394 59.8467 44.5021C59.6313 44.6647 59.471 44.8909 59.3879 45.1496C59.3048 45.4083 59.303 45.6867 59.3828 45.9464C59.4626 46.2061 59.6201 46.4344 59.8335 46.5998L63.8539 49.5552L62.3183 54.3367C62.2418 54.5974 62.247 54.8758 62.3334 55.1334C62.4197 55.391 62.5829 55.6152 62.8004 55.7751C63.0179 55.935 63.279 56.0227 63.5479 56.0261C63.8167 56.0295 64.0799 55.9485 64.3014 55.7942L68.321 52.8389L72.3407 55.7942C72.5623 55.9475 72.8253 56.0277 73.0937 56.0238C73.3621 56.0199 73.6227 55.9321 73.8399 55.7724C74.057 55.6128 74.2201 55.3891 74.3067 55.1321C74.3933 54.875 74.3992 54.5971 74.3236 54.3365L72.788 49.555L76.8085 46.5997C77.04 46.4443 77.215 46.2164 77.3064 45.9509C77.3979 45.6854 77.401 45.3969 77.3151 45.1295C77.2292 44.8621 77.0592 44.6306 76.8309 44.4702C76.6027 44.3098 76.3288 44.2295 76.0512 44.2415ZM70.0485 49.4603L70.6479 51.3271L69.0785 50.1728C68.8577 50.0125 68.5928 49.9264 68.321 49.9264C68.0493 49.9264 67.7844 50.0125 67.5636 50.1728L65.994 51.3268L66.5935 49.46C66.6776 49.1981 66.6776 48.9161 66.5935 48.6542C66.5095 48.3923 66.3456 48.1642 66.1254 48.0023L64.5559 46.8487H66.4961C66.7682 46.8487 67.0333 46.7616 67.2534 46.5998C67.4736 46.438 67.6375 46.2099 67.7216 45.948L68.321 44.0805L68.9205 45.948C69.0046 46.2099 69.1685 46.438 69.3886 46.5998C69.6088 46.7616 69.8739 46.8487 70.146 46.8487H72.0861L70.5165 48.0027C70.2964 48.1645 70.1325 48.3927 70.0485 48.6545C69.9644 48.9164 69.9644 49.1984 70.0485 49.4603ZM0.569098 46.5998L4.58954 49.5552L3.05395 54.3367C2.97838 54.5973 2.98431 54.8752 3.07093 55.1322C3.15755 55.3893 3.32062 55.613 3.53779 55.7726C3.75496 55.9322 4.01561 56.02 4.284 56.0238C4.5524 56.0277 4.81541 55.9475 5.03699 55.7942L9.05666 52.8389L13.0763 55.7942C13.2978 55.9485 13.561 56.0294 13.8298 56.026C14.0987 56.0226 14.3598 55.9348 14.5773 55.775C14.7948 55.6151 14.9579 55.3909 15.0442 55.1333C15.1306 54.8757 15.1358 54.5973 15.0592 54.3365L13.5236 49.555L17.5441 46.5997C17.7574 46.4343 17.9148 46.206 17.9946 45.9463C18.0744 45.6866 18.0726 45.4083 17.9895 45.1497C17.9065 44.891 17.7462 44.6648 17.5308 44.5022C17.3154 44.3395 17.0555 44.2485 16.7868 44.2415H11.8177L10.2821 39.4593C10.1926 39.2029 10.0266 38.9809 9.80717 38.8238C9.58771 38.6668 9.32552 38.5825 9.05672 38.5825C8.78792 38.5825 8.52574 38.6668 8.30627 38.8238C8.08681 38.9809 7.92087 39.2029 7.8313 39.4593L6.29558 44.2415H1.32652C1.04885 44.2294 0.774905 44.3097 0.546591 44.4701C0.318278 44.6304 0.148164 44.862 0.0622668 45.1295C-0.0236302 45.3969 -0.0205809 45.6855 0.0709483 45.951C0.162477 46.2165 0.337448 46.4444 0.569098 46.5998ZM6.86117 48.0027L5.29157 46.8487H7.2317C7.50379 46.8487 7.76892 46.7616 7.98906 46.5998C8.20921 46.438 8.37308 46.2099 8.45719 45.948L9.05666 44.0805L9.65613 45.948C9.74023 46.2099 9.90411 46.438 10.1243 46.5998C10.3444 46.7616 10.6095 46.8487 10.8816 46.8487H12.8218L11.2521 48.0027C11.032 48.1645 10.8681 48.3927 10.784 48.6546C10.6999 48.9165 10.7 49.1985 10.7841 49.4604L11.3836 51.3272L9.81408 50.1728C9.59328 50.0125 9.32839 49.9264 9.05666 49.9264C8.78493 49.9264 8.52004 50.0125 8.29923 50.1728L6.72963 51.3268L7.3291 49.46C7.41315 49.1982 7.41314 48.9162 7.32908 48.6545C7.24503 48.3927 7.08123 48.1645 6.86117 48.0027ZM38.6888 52.45C43.8151 52.45 48.8262 50.9119 53.0885 48.0303C57.3509 45.1487 60.6729 41.0529 62.6347 36.2609C64.5964 31.4689 65.1097 26.1959 64.1096 21.1088C63.1095 16.0216 60.641 11.3488 57.0162 7.68114C53.3914 4.0135 48.7731 1.51582 43.7453 0.503918C38.7176 -0.50798 33.5062 0.0113632 28.7702 1.99627C24.0341 3.98118 19.9862 7.3425 17.1382 11.6552C14.2902 15.9679 12.7701 21.0382 12.7701 26.225C12.7779 33.1779 15.5112 39.8437 20.3702 44.7601C25.2292 49.6765 31.8172 52.4421 38.6888 52.45ZM38.6888 2.91403C43.2455 2.91403 47.6998 4.2812 51.4885 6.84264C55.2772 9.40408 58.2301 13.0448 59.9739 17.3043C61.7176 21.5638 62.1739 26.2509 61.2849 30.7728C60.396 35.2946 58.2017 39.4483 54.9797 42.7084C51.7577 45.9685 47.6526 48.1886 43.1835 49.0881C38.7144 49.9875 34.0821 49.5259 29.8723 47.7616C25.6625 45.9972 22.0643 43.0094 19.5328 39.1759C17.0013 35.3424 15.6501 30.8355 15.6501 26.225C15.657 20.0447 18.0865 14.1195 22.4056 9.74939C26.7247 5.37926 32.5807 2.92103 38.6888 2.91403ZM63.1492 57.2834H58.1801L56.6445 52.5012C56.555 52.2448 56.389 52.0228 56.1696 51.8657C55.9501 51.7087 55.6879 51.6244 55.4191 51.6244C55.1503 51.6244 54.8881 51.7087 54.6687 51.8657C54.4492 52.0228 54.2833 52.2448 54.1937 52.5012L52.6581 57.2834H47.6889C47.4202 57.2903 47.1602 57.3813 46.9447 57.544C46.7293 57.7066 46.569 57.9329 46.4859 58.1915C46.4028 58.4502 46.4011 58.7286 46.4809 58.9883C46.5607 59.248 46.7181 59.4763 46.9315 59.6417L50.9519 62.5971L49.4163 67.3786C49.3398 67.6393 49.345 67.9177 49.4313 68.1753C49.5177 68.4329 49.6808 68.6571 49.8983 68.817C50.1158 68.9769 50.3769 69.0646 50.6458 69.068C50.9146 69.0715 51.1778 68.9905 51.3993 68.8363L55.4189 65.8809L59.4386 68.8363C59.6602 68.9895 59.9232 69.0697 60.1916 69.0658C60.46 69.0619 60.7206 68.9741 60.9378 68.8145C61.1549 68.6549 61.318 68.4312 61.4046 68.1741C61.4912 67.9171 61.4971 67.6392 61.4215 67.3786L59.8859 62.5971L63.9064 59.6417C64.138 59.4864 64.3129 59.2585 64.4045 58.993C64.496 58.7275 64.4991 58.439 64.4132 58.1715C64.3273 57.9041 64.1573 57.6725 63.929 57.5121C63.7007 57.3517 63.4268 57.2714 63.1492 57.2834ZM57.1465 62.5022L57.746 64.369L56.1764 63.215C55.9555 63.0547 55.6907 62.9685 55.4189 62.9685C55.1472 62.9685 54.8823 63.0547 54.6615 63.215L53.0927 64.3688L53.6921 62.5019C53.7763 62.2401 53.7763 61.958 53.6922 61.6961C53.6081 61.4343 53.4442 61.2061 53.2241 61.0442L51.6545 59.8902H53.5946C53.8667 59.8902 54.1318 59.8031 54.352 59.6413C54.5721 59.4795 54.736 59.2514 54.8201 58.9895L55.4196 57.122L56.019 58.9895C56.1031 59.2514 56.267 59.4795 56.4872 59.6413C56.7073 59.8031 56.9724 59.8902 57.2445 59.8902H59.1847L57.6148 61.0446C57.3946 61.2064 57.2307 61.4346 57.1465 61.6965C57.0624 61.9583 57.0624 62.2403 57.1465 62.5022ZM46.3749 61.2149H41.4059L39.8703 56.433C39.7807 56.1765 39.6148 55.9545 39.3953 55.7975C39.1758 55.6404 38.9137 55.5561 38.6449 55.5561C38.3761 55.5561 38.1139 55.6404 37.8944 55.7975C37.6749 55.9545 37.509 56.1765 37.4194 56.433L35.8838 61.2151H30.9148C30.646 61.222 30.386 61.313 30.1705 61.4757C29.955 61.6383 29.7947 61.8646 29.7116 62.1233C29.6285 62.382 29.6268 62.6604 29.7066 62.9201C29.7864 63.1799 29.9439 63.4082 30.1574 63.5736L34.1778 66.5289L32.6422 71.3104C32.5656 71.5712 32.5709 71.8496 32.6572 72.1072C32.7435 72.3648 32.9067 72.589 33.1241 72.7489C33.3416 72.9087 33.6028 72.9965 33.8716 72.9999C34.1404 73.0033 34.4037 72.9224 34.6251 72.7681L38.6448 69.8128L42.6645 72.7681C42.8861 72.9214 43.1491 73.0015 43.4174 72.9977C43.6858 72.9938 43.9465 72.906 44.1636 72.7463C44.3808 72.5867 44.5438 72.363 44.6304 72.106C44.717 71.8489 44.7229 71.571 44.6474 71.3104L43.1118 66.5289L47.1323 63.5736C47.3641 63.4182 47.5392 63.1904 47.6308 62.9248C47.7224 62.6592 47.7255 62.3706 47.6396 62.1031C47.5537 61.8356 47.3836 61.6039 47.1552 61.4435C46.9268 61.2831 46.6527 61.2027 46.3749 61.2149ZM40.3722 66.4336L40.9717 68.3005L39.4021 67.1464C39.1813 66.9862 38.9164 66.9 38.6447 66.9C38.3729 66.9 38.108 66.9862 37.8872 67.1464L36.3176 68.3005L36.9171 66.4336C37.0012 66.1718 37.0012 65.8897 36.9172 65.6278C36.8331 65.366 36.6692 65.1378 36.449 64.976L34.8794 63.8219H36.8196C37.0917 63.822 37.3568 63.7348 37.5769 63.573C37.7971 63.4113 37.961 63.1831 38.0451 62.9213L38.6445 61.0538L39.244 62.9213C39.3281 63.1831 39.492 63.4113 39.7121 63.573C39.9323 63.7348 40.1974 63.822 40.4695 63.8219H42.4096L40.8404 64.9762C40.6203 65.138 40.4564 65.3662 40.3723 65.6281C40.2882 65.8899 40.2881 66.1718 40.3722 66.4336ZM29.6518 57.2683H24.6829L23.1473 52.4861C23.0577 52.2297 22.8918 52.0077 22.6723 51.8506C22.4528 51.6936 22.1907 51.6093 21.9219 51.6093C21.6531 51.6093 21.3909 51.6936 21.1714 51.8506C20.9519 52.0077 20.786 52.2297 20.6964 52.4861L19.1608 57.2683H14.1917C13.9229 57.2752 13.6629 57.3662 13.4475 57.5289C13.232 57.6915 13.0717 57.9177 12.9886 58.1764C12.9056 58.4351 12.9038 58.7135 12.9836 58.9732C13.0634 59.2329 13.2208 59.4612 13.4342 59.6266L17.4547 62.5819L15.9191 67.3635C15.8425 67.6242 15.8478 67.9026 15.9341 68.1602C16.0204 68.4178 16.1835 68.642 16.401 68.8019C16.6185 68.9618 16.8797 69.0495 17.1485 69.0529C17.4173 69.0564 17.6806 68.9754 17.902 68.8211L21.9217 65.8658L25.9413 68.8211C26.1629 68.9744 26.4259 69.0546 26.6943 69.0507C26.9627 69.0468 27.2233 68.959 27.4405 68.7994C27.6576 68.6397 27.8207 68.4161 27.9073 68.159C27.9939 67.9019 27.9998 67.6241 27.9242 67.3635L26.3887 62.5819L30.4091 59.6266C30.6407 59.4712 30.8156 59.2434 30.907 58.9779C30.9985 58.7124 31.0016 58.4239 30.9157 58.1565C30.8299 57.8891 30.6598 57.6576 30.4316 57.4972C30.2034 57.3368 29.9294 57.2563 29.6518 57.2683ZM23.6491 62.487L24.2486 64.3539L22.679 63.1998C22.4582 63.0396 22.1933 62.9534 21.9215 62.9534C21.6498 62.9534 21.3849 63.0396 21.1641 63.1998L19.5945 64.3539L20.194 62.487C20.2781 62.2252 20.2781 61.9431 20.194 61.6813C20.11 61.4194 19.9461 61.1912 19.7259 61.0294L18.1563 59.8753H20.0965C20.3685 59.8754 20.6337 59.7883 20.8538 59.6265C21.074 59.4647 21.2378 59.2365 21.3219 58.9747L21.9214 57.1072L22.5209 58.9747C22.605 59.2365 22.7689 59.4647 22.989 59.6265C23.2092 59.7883 23.4743 59.8754 23.7464 59.8753H25.6865L24.1169 61.0294C23.8967 61.1913 23.7329 61.4195 23.6489 61.6814C23.5649 61.9434 23.5649 62.2252 23.6491 62.487ZM46.337 30.9566L43.1878 30.4257C44.1044 29.5206 44.7336 28.3596 44.9949 27.0909C45.2562 25.8223 45.1379 24.5037 44.655 23.3034C44.1721 22.1032 43.3466 21.0758 42.2838 20.3526C41.2211 19.6293 39.9694 19.2431 38.6887 19.2431C37.4079 19.2431 36.1562 19.6293 35.0935 20.3526C34.0307 21.0758 33.2052 22.1032 32.7223 23.3034C32.2394 24.5037 32.1211 25.8223 32.3824 27.0909C32.6438 28.3596 33.2729 29.5206 34.1895 30.4257L31.0403 30.9566C29.9361 31.1399 28.9324 31.7151 28.2092 32.5791C27.4861 33.443 27.0906 34.5393 27.0936 35.6715V41.4173C27.0937 41.708 27.1897 41.9903 27.3665 42.2194C27.5433 42.4485 27.7906 42.6112 28.0693 42.6818C31.5504 43.59 35.1041 44.1845 38.6888 44.4586C42.2736 44.1846 45.8273 43.5901 49.3084 42.682C49.5871 42.6115 49.8344 42.4487 50.0112 42.2196C50.188 41.9905 50.284 41.7082 50.2841 41.4176V35.6715C50.2871 34.5393 49.8915 33.4431 49.1683 32.5791C48.445 31.7152 47.4413 31.1399 46.337 30.9566ZM38.6888 21.8636C39.4533 21.8636 40.2006 22.093 40.8362 22.5227C41.4718 22.9524 41.9672 23.5632 42.2597 24.2778C42.5522 24.9924 42.6288 25.7787 42.4797 26.5373C42.3305 27.2959 41.9624 27.9927 41.4219 28.5397C40.8813 29.0866 40.1926 29.4591 39.4429 29.61C38.6931 29.7609 37.916 29.6834 37.2098 29.3874C36.5035 29.0914 35.8999 28.5902 35.4752 27.9471C35.0505 27.3039 34.8238 26.5478 34.8238 25.7744C34.8249 24.7375 35.2325 23.7435 35.9571 23.0103C36.6817 22.2772 37.6641 21.8648 38.6888 21.8636ZM47.7073 40.3875C44.7494 41.1419 41.7316 41.6316 38.6888 41.8509C35.6461 41.6316 32.6283 41.1419 29.6704 40.3875V35.6715C29.6691 35.1569 29.8489 34.6586 30.1777 34.2659C30.5064 33.8732 30.9626 33.6118 31.4645 33.5284L38.6888 32.3101L45.9132 33.5284C46.4151 33.6118 46.8713 33.8732 47.2 34.2659C47.5288 34.6586 47.7086 35.1569 47.7073 35.6715V40.3875ZM20.6519 31.2624C21.7235 31.5139 23.5369 31.9164 25.3709 32.237C24.9657 33.0203 24.7038 33.8712 24.5978 34.7487C21.8051 34.2479 19.2254 33.6007 19.0506 33.5565C18.7719 33.4859 18.5245 33.3232 18.3477 33.0941C18.171 32.865 18.0749 32.5827 18.0749 32.292V26.5465C18.0719 25.4143 18.4674 24.318 19.1907 23.4541C19.9139 22.5902 20.9176 22.0151 22.0218 21.8318L25.171 21.3009C24.3989 20.5401 23.8281 19.5952 23.5112 18.5529C23.1943 17.5106 23.1415 16.4044 23.3576 15.3361C23.5737 14.2678 24.0518 13.2715 24.7479 12.439C25.444 11.6065 26.3357 10.9644 27.3412 10.5717C28.3467 10.1791 29.4336 10.0485 30.5019 10.1921C31.5703 10.3356 32.5859 10.7485 33.4553 11.393C34.3247 12.0374 35.02 12.8927 35.4774 13.8801C35.9347 14.8676 36.1393 15.9555 36.0725 17.0439C34.9097 17.4022 33.8306 17.995 32.9003 18.7865C35.3832 14.9582 30.1219 10.6645 26.9387 13.8851C23.7554 17.1057 27.9978 22.4302 31.7829 19.9171C30.9793 20.8932 30.3829 22.0262 30.0307 23.2456L29.6704 23.1851L22.446 24.4034C21.9441 24.4867 21.4879 24.7482 21.1592 25.1409C20.8304 25.5335 20.6506 26.0318 20.6519 26.5465V31.2624ZM59.3025 26.5458V32.2916C59.3025 32.5823 59.2065 32.8646 59.0297 33.0937C58.8529 33.3228 58.6055 33.4855 58.3269 33.5561C58.1523 33.6003 55.5724 34.247 52.7796 34.7483C52.6736 33.8708 52.4118 33.0199 52.0066 32.2366C53.8407 31.9162 55.6539 31.5136 56.7256 31.262V26.5465C56.7269 26.0318 56.547 25.5335 56.2183 25.1409C55.8895 24.7482 55.4333 24.4867 54.9314 24.4034L47.7073 23.1851L47.3475 23.2458C46.9953 22.0265 46.3989 20.8935 45.5953 19.9174C49.379 22.4296 53.6226 17.1062 50.4396 13.8853C47.2565 10.6645 41.9943 14.957 44.478 18.7868C43.5475 17.9952 42.4683 17.4024 41.3054 17.0442C41.2385 15.9558 41.4431 14.8679 41.9005 13.8804C42.3578 12.893 43.0531 12.0377 43.9225 11.3932C44.7919 10.7488 45.8075 10.3358 46.8759 10.1923C47.9443 10.0488 49.0312 10.1794 50.0366 10.572C51.0421 10.9646 51.9339 11.6067 52.63 12.4393C53.3261 13.2718 53.8041 14.268 54.0202 15.3364C54.2363 16.4047 54.1835 17.5109 53.8666 18.5532C53.5497 19.5954 52.979 20.5404 52.2068 21.3011L55.3561 21.8321C56.4602 22.0154 57.4637 22.5905 58.1868 23.4544C58.91 24.3182 59.3055 25.4137 59.3025 26.5458Z" fill="#4FC9F3"/>
</svg>
