<svg width="16" height="16" viewBox="0 0 16 16" fill="none" xmlns="http://www.w3.org/2000/svg">
<path d="M2.57494 15.3739H11.9781C12.561 15.3722 13.1193 15.1394 13.5306 14.7265C13.942 14.3137 14.1727 13.7545 14.1722 13.1717V8.44686C14.1722 8.2806 14.1062 8.12115 13.9886 8.00359C13.8711 7.88602 13.7116 7.81998 13.5453 7.81998C13.3791 7.81998 13.2196 7.88602 13.1021 8.00359C12.9845 8.12115 12.9185 8.2806 12.9185 8.44686V13.1717C12.9193 13.422 12.8208 13.6625 12.6445 13.8404C12.4682 14.0182 12.2285 14.1188 11.9781 14.1201H2.57494C2.32455 14.1188 2.08491 14.0182 1.90862 13.8404C1.73233 13.6625 1.63379 13.422 1.63462 13.1717V3.78475C1.63379 3.53436 1.73233 3.29386 1.90862 3.11604C2.08491 2.93822 2.32455 2.83761 2.57494 2.83628H7.27654C7.4428 2.83628 7.60225 2.77023 7.71981 2.65267C7.83738 2.53511 7.90342 2.37566 7.90342 2.2094C7.90342 2.04314 7.83738 1.88369 7.71981 1.76613C7.60225 1.64857 7.4428 1.58252 7.27654 1.58252H2.57494C1.99213 1.58418 1.43379 1.81699 1.02245 2.22986C0.611101 2.64274 0.38036 3.20194 0.38086 3.78475V13.1717C0.38036 13.7545 0.611101 14.3137 1.02245 14.7265C1.43379 15.1394 1.99213 15.3722 2.57494 15.3739Z" fill="white"/>
<path d="M6.3078 6.93878L5.8132 9.20432C5.79081 9.30708 5.79463 9.41383 5.82432 9.51472C5.85401 9.61561 5.9086 9.70742 5.98308 9.78168C6.05858 9.85407 6.15042 9.9072 6.25082 9.93655C6.35121 9.96591 6.4572 9.97062 6.55981 9.95031L8.82034 9.45445C8.93772 9.42867 9.04521 9.3697 9.13002 9.28456L14.8434 3.57118C15.0181 3.39654 15.1566 3.1892 15.2512 2.96101C15.3457 2.73282 15.3943 2.48825 15.3943 2.24125C15.3943 1.99425 15.3457 1.74968 15.2512 1.52149C15.1566 1.2933 15.0181 1.08596 14.8434 0.911324C14.4853 0.569133 14.0091 0.378174 13.5138 0.378174C13.0185 0.378174 12.5423 0.569133 12.1842 0.911324L6.47957 6.63035C6.39395 6.71458 6.33433 6.82164 6.3078 6.93878ZM13.0706 1.79836C13.1899 1.6841 13.3486 1.62032 13.5138 1.62032C13.679 1.62032 13.8377 1.6841 13.957 1.79836C14.073 1.91661 14.1379 2.07563 14.1379 2.24125C14.1379 2.40688 14.073 2.56589 13.957 2.68414L13.5138 3.12735L12.6274 2.24094L13.0706 1.79836ZM7.49135 7.38637L11.7378 3.12923L12.6155 4.01125L8.36711 8.26964L7.24186 8.51663L7.49135 7.38637Z" fill="white"/>
</svg>
