<svg width="318" height="486" viewBox="0 0 318 486" fill="none" xmlns="http://www.w3.org/2000/svg">
<path d="M96.9321 69.0838C97.072 69.6988 97.1632 70.3239 97.2048 70.9532L146.169 99.2005L158.071 92.3491L170.758 108.959L150.868 123.136C149.261 124.281 147.326 124.874 145.353 124.826C143.38 124.778 141.477 124.091 139.927 122.869L89.4368 83.0368C87.1582 83.8803 84.6768 84.0101 82.3226 83.4088C79.9685 82.8076 77.8532 81.504 76.258 79.6712C74.6629 77.8384 73.6635 75.5634 73.3928 73.1488C73.1222 70.7342 73.5931 68.2944 74.7429 66.154C75.8927 64.0135 77.6669 62.2738 79.8295 61.1663C81.9922 60.0588 84.4407 59.636 86.8496 59.954C89.2584 60.2721 91.5133 61.316 93.3143 62.9469C95.1154 64.5777 96.3773 66.7182 96.9321 69.0838Z" fill="#FFB6B6"/>
<path d="M146.849 96.0816C147.004 95.3611 147.313 94.6825 147.755 94.0922C148.196 93.502 148.76 93.0139 149.407 92.6614L172.013 80.3445C175.023 78.0724 178.812 77.0869 182.548 77.6041C186.284 78.1213 189.662 80.099 191.942 83.1035C194.222 86.1079 195.217 89.8939 194.71 93.6312C194.202 97.3685 192.233 100.752 189.235 103.04L171.117 121.445C170.6 121.971 169.976 122.378 169.287 122.641C168.598 122.903 167.861 123.014 167.125 122.965C166.39 122.917 165.673 122.71 165.025 122.36C164.376 122.01 163.811 121.524 163.367 120.936L147.767 100.253C147.323 99.665 147.011 98.9877 146.853 98.2677C146.694 97.5478 146.693 96.8021 146.849 96.0816Z" fill="#3F3D56"/>
<path d="M187.235 24.4757C190.488 14.11 197.884 4.60293 208.113 1.09876C218.343 -2.4054 233.321 2.93258 241.012 10.5969C255.079 24.6165 258.512 72.779 248.847 87.9989C246.925 87.8972 240.292 87.8219 238.346 87.749L235.594 78.5756V87.6586C220.407 87.1893 204.597 87.4831 188.778 87.787C187.36 77.0112 183.983 34.8414 187.235 24.4757Z" fill="#2F2E41"/>
<path d="M182.883 459.573H169.032L162.443 406.146L182.886 406.147L182.883 459.573Z" fill="#FFB6B6"/>
<path d="M304.137 450.96L290.734 454.453L270.881 404.416L290.663 399.261L304.137 450.96Z" fill="#FFB6B6"/>
<path d="M227.805 131.433L230.944 139.593L230.316 147.753L168.892 169.028L171.94 133.316L178.844 125.155L227.805 131.433Z" fill="#FFB6B6"/>
<path d="M208.384 57.9995C220.5 57.9995 230.322 48.1774 230.322 36.0612C230.322 23.9449 220.5 14.1228 208.384 14.1228C196.268 14.1228 186.446 23.9449 186.446 36.0612C186.446 48.1774 196.268 57.9995 208.384 57.9995Z" fill="#FFB7B7"/>
<path d="M193.31 7.49371C197.525 4.9239 202.353 3.53378 207.29 3.4687C212.226 3.40362 217.09 4.66597 221.371 7.12376C225.653 9.58156 229.196 13.1445 231.629 17.4401C234.062 21.7357 235.297 26.6061 235.204 31.5421C223.245 34.5986 210.501 35.8771 196.996 32.2783L193.909 24.723L192.089 32.2839C187.958 35.1901 183.97 35.1849 180.126 32.2682C179.963 27.3461 181.095 22.4674 183.409 18.1199C185.722 13.7723 189.136 10.1082 193.31 7.49371Z" fill="#2F2E41"/>
<path d="M189.079 485.874H179.251L177.496 476.594L173.003 485.874H146.935C145.685 485.874 144.469 485.475 143.462 484.734C142.456 483.994 141.712 482.951 141.34 481.758C140.968 480.565 140.988 479.284 141.395 478.103C141.803 476.922 142.577 475.902 143.605 475.192L164.422 460.815V451.434L186.318 452.74L189.079 485.874Z" fill="#2F2E41"/>
<path d="M317.981 474.531L308.47 477.01L304.432 468.473L302.425 478.586L277.2 485.161C275.991 485.476 274.712 485.397 273.552 484.934C272.391 484.471 271.408 483.65 270.748 482.589C270.087 481.529 269.782 480.285 269.879 479.039C269.975 477.793 270.467 476.611 271.283 475.664L287.801 456.501L285.435 447.423L306.952 443.165L317.981 474.531Z" fill="#2F2E41"/>
<path d="M302.438 417.361L261.836 333.914L249.091 232.348C257.879 216.027 241.558 182.819 241.558 182.819V168.876L178.338 180.803C165.407 216.071 159.137 253.433 159.846 290.99L162.393 426H161.594C160.268 426 158.996 426.527 158.058 427.465C157.121 428.402 156.594 429.674 156.594 431C156.594 432.326 157.121 433.598 158.058 434.536C158.996 435.473 160.268 436 161.594 436H186.594C187.92 436 189.192 435.473 190.129 434.536C191.067 433.598 191.594 432.326 191.594 431C191.594 429.674 191.067 428.402 190.129 427.465C189.192 426.527 187.92 426 186.594 426H185.949L203.896 254.243L224.764 339.001L275.194 417.04C273.907 417.141 272.71 417.735 271.853 418.7C270.996 419.665 270.546 420.924 270.598 422.213C270.65 423.502 271.199 424.721 272.131 425.614C273.062 426.506 274.304 427.003 275.594 427H300.594C301.757 427.001 302.883 426.597 303.78 425.856C304.676 425.116 305.286 424.086 305.505 422.944C305.723 421.802 305.536 420.619 304.977 419.6C304.417 418.581 303.519 417.789 302.438 417.361Z" fill="#2F2E41"/>
<path d="M247.274 191.367C247.066 190.551 246.605 189.822 245.958 189.284C245.31 188.746 244.509 188.427 243.669 188.372C242.835 178.845 237.329 117.743 237.12 115.951L237.112 115.875L235.517 81.8172C235.459 80.5803 234.948 79.4081 234.08 78.5244C233.213 77.6408 232.05 77.1076 230.815 77.0269L222.394 76.4764C222.279 76.4725 222.169 76.4239 222.089 76.3409C222.008 76.2578 221.963 76.1467 221.963 76.0311C221.963 75.1012 221.78 74.1804 221.424 73.3212C221.069 72.462 220.547 71.6814 219.889 71.0238C219.232 70.3663 218.451 69.8446 217.592 69.4888C216.733 69.1329 215.812 68.9497 214.882 68.9497H189.951C188.336 68.9504 186.777 69.5404 185.566 70.609C184.356 71.6776 183.577 73.1513 183.375 74.7535C183.364 74.8639 183.312 74.9659 183.229 75.0394C183.146 75.1128 183.038 75.1522 182.927 75.1497L182.924 75.1496C180.091 75.0912 177.332 76.0504 175.145 77.8529C172.959 79.6554 171.492 82.1819 171.009 84.9739C167.6 104.805 160.77 149.814 164.147 174.836C165.323 183.547 164.788 196.648 164.344 203.936C164.3 204.64 164.395 205.346 164.624 206.014C164.853 206.681 165.212 207.297 165.679 207.826C164.685 208.112 163.841 208.774 163.325 209.671C162.809 210.567 162.661 211.63 162.913 212.633C163.172 213.662 163.83 214.545 164.74 215.089C165.651 215.633 166.741 215.793 167.769 215.534L244.373 196.223C245.402 195.964 246.285 195.307 246.829 194.396C247.373 193.485 247.533 192.396 247.274 191.367Z" fill="#1C3A6A"/>
<path d="M179.896 75.4896C179.886 73.8041 179.278 72.1768 178.182 70.8964C177.086 69.6159 175.572 68.765 173.908 68.4946L71.5513 51.6864C70.5698 51.5239 69.5651 51.5685 68.6019 51.8174L44.6139 58.02L30.8503 61.583L5.4502 68.149C3.91687 68.5472 2.55911 69.4431 1.58972 70.6961C0.620335 71.949 0.0941714 73.4883 0.09375 75.0725V158.965C0.101385 160.6 0.666392 162.184 1.6955 163.454C2.7246 164.725 4.15625 165.607 5.75409 165.954L110.012 188.137C110.501 188.242 111.001 188.294 111.501 188.292C112.231 188.293 112.956 188.182 113.652 187.964L175.595 168.403C177.056 167.947 178.332 167.031 179.233 165.793C180.133 164.554 180.61 163.058 180.594 161.527L179.896 75.4896Z" fill="white"/>
<path d="M70.392 57.8469C70.3172 57.8468 70.2429 57.8564 70.1706 57.8755L7.01849 74.2072C6.82704 74.2567 6.65743 74.3685 6.53638 74.5249C6.41532 74.6813 6.34963 74.8735 6.34961 75.0712V158.962C6.35035 159.167 6.42082 159.365 6.54932 159.523C6.67781 159.682 6.85664 159.792 7.05627 159.836L111.314 182.018C111.465 182.05 111.622 182.042 111.769 181.996L173.712 162.435C173.895 162.379 174.054 162.264 174.166 162.109C174.279 161.955 174.338 161.768 174.336 161.577L173.641 75.5396C173.64 75.3291 173.564 75.126 173.427 74.9661C173.29 74.8062 173.101 74.7 172.893 74.6663L70.5363 57.8586C70.4885 57.8509 70.4403 57.847 70.392 57.8469Z" fill="#4FC9F3"/>
<path d="M179.896 75.4896C179.886 73.8041 179.278 72.1768 178.182 70.8964C177.086 69.6159 175.572 68.765 173.908 68.4946L71.5513 51.6864C70.5698 51.5239 69.5651 51.5685 68.6019 51.8174L44.6139 58.02L30.8503 61.583L5.4502 68.149C3.91687 68.5472 2.55911 69.4431 1.58972 70.6961C0.620335 71.949 0.0941714 73.4883 0.09375 75.0725V158.965C0.101385 160.6 0.666392 162.184 1.6955 163.454C2.7246 164.725 4.15625 165.607 5.75409 165.954L110.012 188.137C110.501 188.242 111.001 188.294 111.501 188.292C112.231 188.293 112.956 188.182 113.652 187.964L175.595 168.403C177.056 167.947 178.332 167.031 179.233 165.793C180.133 164.554 180.61 163.058 180.594 161.527L179.896 75.4896ZM175.058 166.699L113.116 186.26C112.233 186.535 111.293 186.58 110.387 186.391L6.12347 164.208C4.92547 163.947 3.85236 163.285 3.08112 162.332C2.30988 161.379 1.88662 160.191 1.88123 158.965V75.0726C1.882 73.9746 2.21944 72.9032 2.84802 72.003C3.47661 71.1027 4.3661 70.4168 5.39661 70.0378C5.56025 69.9764 5.72738 69.9247 5.89709 69.8829L32.7689 62.9356L48.6596 58.8244L69.0488 53.5513C69.486 53.4346 69.9369 53.3765 70.3894 53.3785C70.6808 53.3784 70.9718 53.4023 71.2593 53.45L173.616 70.2583C174.44 70.3935 175.221 70.7185 175.897 71.2076C176.574 71.6968 177.127 72.3367 177.513 73.0766C177.9 73.8268 178.104 74.6576 178.109 75.5016L178.806 161.539C178.819 162.688 178.461 163.81 177.786 164.739C177.111 165.669 176.155 166.356 175.058 166.699Z" fill="#3F3D56"/>
<path d="M177.513 73.0765C177.443 73.1221 177.367 73.1563 177.287 73.1777L147.179 81.3167L137.807 83.849L111.15 91.0525C111.074 91.0712 110.996 91.0812 110.917 91.0823C110.864 91.0813 110.81 91.0773 110.757 91.0704L3.26932 71.4736L2.91183 71.4081C2.67882 71.3646 2.47255 71.2304 2.33816 71.0352C2.20378 70.8399 2.15218 70.5993 2.19473 70.3661C2.23728 70.1329 2.37046 69.9261 2.56515 69.7908C2.75984 69.6556 3.00022 69.603 3.23361 69.6445L5.39645 70.0377L110.882 89.271L133.857 83.0625L146.709 79.5888L176.351 71.5749L176.822 71.4498C177.025 71.3962 177.241 71.4157 177.432 71.505C177.622 71.5943 177.775 71.7477 177.864 71.9384C177.888 71.9839 177.905 72.0319 177.918 72.0814C177.967 72.2687 177.954 72.467 177.881 72.6464C177.808 72.8258 177.679 72.9767 177.513 73.0765Z" fill="#3F3D56"/>
<path d="M111.811 188.5C111.575 188.5 111.349 188.407 111.182 188.241C111.014 188.075 110.919 187.85 110.917 187.615L110.023 90.1968C110.021 89.9598 110.113 89.7317 110.28 89.5625C110.446 89.3934 110.672 89.2971 110.909 89.2949H110.917C111.153 89.2949 111.379 89.388 111.546 89.5538C111.714 89.7197 111.809 89.9449 111.811 90.1805L112.705 187.598C112.707 187.835 112.615 188.063 112.449 188.233C112.283 188.402 112.056 188.498 111.819 188.5H111.811Z" fill="#3F3D56"/>
<path d="M147.179 176.649L137.807 179.181L133.857 83.0626L33.0607 63.007C32.962 62.9896 32.8644 62.9657 32.7687 62.9355C31.9945 62.7151 31.3179 62.2382 30.8501 61.583L44.6137 58.02L48.6594 58.8244L144.302 77.8492C144.804 77.9485 145.28 78.1554 145.695 78.4557C146.111 78.756 146.457 79.1425 146.709 79.5889C147.007 80.1073 147.173 176.029 147.179 176.649Z" fill="#1C3A6A"/>
<path d="M142.98 121.846C143.46 122.256 143.906 122.703 144.315 123.183L200.461 116.626L205.922 104.026L226.015 109.781L218.516 133.027C217.91 134.905 216.712 136.536 215.1 137.674C213.489 138.813 211.551 139.398 209.579 139.342L145.294 137.515C143.969 139.552 142.055 141.137 139.807 142.059C137.56 142.982 135.084 143.198 132.711 142.68C130.337 142.161 128.177 140.932 126.519 139.156C124.861 137.38 123.782 135.142 123.428 132.738C123.073 130.334 123.458 127.88 124.532 125.7C125.607 123.521 127.319 121.72 129.442 120.538C131.564 119.355 133.997 118.847 136.415 119.081C138.833 119.315 141.123 120.279 142.98 121.846Z" fill="#FFB6B6"/>
<path d="M199.146 113.718C198.84 113.047 198.683 112.318 198.685 111.581C198.687 110.844 198.848 110.116 199.157 109.447L209.945 86.0725C211.004 82.4531 213.456 79.4017 216.762 77.5872C220.069 75.7728 223.959 75.3436 227.582 76.3936C231.204 77.4436 234.262 79.8872 236.085 83.1885C237.909 86.4898 238.348 90.3795 237.308 94.0045L233.755 119.586C233.654 120.316 233.396 121.016 233 121.637C232.604 122.259 232.078 122.788 231.459 123.188C230.84 123.588 230.142 123.85 229.413 123.956C228.683 124.062 227.94 124.01 227.232 123.802L202.372 116.517C201.665 116.31 201.01 115.953 200.453 115.47C199.896 114.987 199.45 114.389 199.146 113.718Z" fill="#3F3D56"/>
<path d="M42.5944 134.5C42.483 134.5 42.372 134.488 42.2633 134.463L11.2633 127.463C10.8757 127.375 10.5388 127.137 10.3267 126.801C10.1146 126.465 10.0445 126.058 10.132 125.67C10.2194 125.283 10.4573 124.945 10.7932 124.733C11.1291 124.52 11.5356 124.45 11.9235 124.537L42.9235 131.537C43.2834 131.618 43.6007 131.829 43.8148 132.129C44.0289 132.43 44.1247 132.799 44.084 133.166C44.0433 133.532 43.8688 133.871 43.594 134.117C43.3192 134.364 42.9634 134.5 42.5944 134.5Z" fill="white"/>
</svg>
