<svg width="614" height="313" viewBox="0 0 614 313" fill="none" xmlns="http://www.w3.org/2000/svg">
<path d="M592.432 313H22.2237C16.5077 312.994 11.0277 310.72 6.98593 306.678C2.94412 302.636 0.670551 297.156 0.664062 291.44V16.5192C0.668852 12.2442 2.36914 8.14571 5.39193 5.12281C8.41472 2.09991 12.5132 0.399478 16.7881 0.394531H597.61C601.953 0.39952 606.117 2.12709 609.188 5.19825C612.259 8.26942 613.987 12.4334 613.991 16.7766V291.44C613.985 297.156 611.711 302.636 607.67 306.678C603.628 310.72 598.148 312.994 592.432 313ZM16.7881 2.85849C13.1664 2.86264 9.69423 4.30322 7.13335 6.86422C4.57247 9.42521 3.13201 12.8975 3.12802 16.5192V291.44C3.13371 296.503 5.14741 301.357 8.72732 304.937C12.3072 308.517 17.161 310.53 22.2237 310.536H592.432C597.495 310.53 602.348 308.517 605.928 304.937C609.508 301.357 611.522 296.503 611.527 291.44V16.7766C611.523 13.0866 610.056 9.54893 607.447 6.93967C604.837 4.33042 601.3 2.86269 597.61 2.85849H16.7881Z" fill="#CCCCCC"/>
<path d="M41.9343 291.443H572.719C577.947 291.443 582.961 289.366 586.657 285.67C590.354 281.973 592.431 276.959 592.431 271.731V41.908C592.431 36.6801 590.354 31.6664 586.657 27.9697C582.961 24.2731 577.947 22.1963 572.719 22.1963H41.9343C36.7065 22.1963 31.6928 24.2731 27.9961 27.9697C24.2994 31.6664 22.2227 36.6801 22.2227 41.908V271.731C22.2227 276.959 24.2994 281.973 27.9961 285.67C31.6928 289.366 36.7065 291.443 41.9343 291.443Z" fill="#F2F2F2"/>
<path d="M102.203 89.0585C108.327 89.0585 113.291 84.0943 113.291 77.9706C113.291 71.847 108.327 66.8828 102.203 66.8828C96.0794 66.8828 91.1152 71.847 91.1152 77.9706C91.1152 84.0943 96.0794 89.0585 102.203 89.0585Z" fill="#CCCCCC"/>
<path d="M102.203 130.945C108.327 130.945 113.291 125.981 113.291 119.857C113.291 113.734 108.327 108.77 102.203 108.77C96.0794 108.77 91.1152 113.734 91.1152 119.857C91.1152 125.981 96.0794 130.945 102.203 130.945Z" fill="#CCCCCC"/>
<path d="M102.203 172.834C108.327 172.834 113.291 167.87 113.291 161.746C113.291 155.622 108.327 150.658 102.203 150.658C96.0794 150.658 91.1152 155.622 91.1152 161.746C91.1152 167.87 96.0794 172.834 102.203 172.834Z" fill="#CCCCCC"/>
<path d="M102.203 214.72C108.327 214.72 113.291 209.755 113.291 203.632C113.291 197.508 108.327 192.544 102.203 192.544C96.0794 192.544 91.1152 197.508 91.1152 203.632C91.1152 209.755 96.0794 214.72 102.203 214.72Z" fill="#CCCCCC"/>
<path d="M522.31 79.2032H157.644C157.317 79.2032 157.004 79.0734 156.773 78.8424C156.542 78.6114 156.412 78.298 156.412 77.9712C156.412 77.6445 156.542 77.3312 156.773 77.1001C157.004 76.8691 157.317 76.7393 157.644 76.7393H522.31C522.637 76.7393 522.951 76.8691 523.182 77.1001C523.413 77.3312 523.542 77.6445 523.542 77.9712C523.542 78.298 523.413 78.6114 523.182 78.8424C522.951 79.0734 522.637 79.2032 522.31 79.2032Z" fill="#CCCCCC"/>
<path d="M522.31 121.088H157.644C157.317 121.088 157.004 120.958 156.773 120.727C156.542 120.496 156.412 120.183 156.412 119.856C156.412 119.529 156.542 119.216 156.773 118.985C157.004 118.754 157.317 118.624 157.644 118.624H522.31C522.637 118.624 522.951 118.754 523.182 118.985C523.413 119.216 523.542 119.529 523.542 119.856C523.542 120.183 523.413 120.496 523.182 120.727C522.951 120.958 522.637 121.088 522.31 121.088Z" fill="#CCCCCC"/>
<path d="M522.31 162.979H157.644C157.317 162.979 157.004 162.849 156.773 162.618C156.542 162.387 156.412 162.073 156.412 161.747C156.412 161.42 156.542 161.107 156.773 160.876C157.004 160.644 157.317 160.515 157.644 160.515H522.31C522.637 160.515 522.951 160.644 523.182 160.876C523.413 161.107 523.542 161.42 523.542 161.747C523.542 162.073 523.413 162.387 523.182 162.618C522.951 162.849 522.637 162.979 522.31 162.979Z" fill="#CCCCCC"/>
<path d="M522.31 204.863H157.644C157.317 204.863 157.004 204.734 156.773 204.503C156.542 204.272 156.412 203.958 156.412 203.631C156.412 203.305 156.542 202.991 156.773 202.76C157.004 202.529 157.317 202.399 157.644 202.399H522.31C522.637 202.399 522.951 202.529 523.182 202.76C523.413 202.991 523.542 203.305 523.542 203.631C523.542 203.958 523.413 204.272 523.182 204.503C522.951 204.734 522.637 204.863 522.31 204.863Z" fill="#CCCCCC"/>
<path d="M226.632 246.752H190.904C189.271 246.75 187.705 246.101 186.55 244.946C185.396 243.791 184.746 242.225 184.744 240.592V207.329C184.746 205.696 185.396 204.13 186.55 202.975C187.705 201.82 189.271 201.171 190.904 201.169H226.632C228.265 201.171 229.83 201.82 230.985 202.975C232.14 204.13 232.79 205.696 232.791 207.329V240.592C232.79 242.225 232.14 243.791 230.985 244.946C229.83 246.101 228.265 246.75 226.632 246.752Z" fill="#CCCCCC"/>
<path d="M306.71 246.752H270.982C269.349 246.75 267.783 246.1 266.629 244.946C265.474 243.791 264.824 242.225 264.822 240.592V165.441C264.824 163.808 265.474 162.242 266.629 161.088C267.783 159.933 269.349 159.283 270.982 159.281H306.71C308.343 159.283 309.908 159.933 311.063 161.088C312.218 162.242 312.868 163.808 312.87 165.441V240.592C312.868 242.225 312.218 243.791 311.063 244.946C309.908 246.1 308.343 246.75 306.71 246.752Z" fill="#CCCCCC"/>
<path d="M388.022 246.753H352.295C350.662 246.752 349.096 246.102 347.941 244.947C346.786 243.792 346.137 242.227 346.135 240.594V123.555C346.137 121.922 346.786 120.357 347.941 119.202C349.096 118.047 350.662 117.397 352.295 117.396H388.022C389.655 117.397 391.221 118.047 392.376 119.202C393.53 120.357 394.18 121.922 394.182 123.555V240.594C394.18 242.227 393.53 243.792 392.376 244.947C391.221 246.102 389.655 246.752 388.022 246.753Z" fill="#CCCCCC"/>
<path d="M471.796 246.753H436.068C434.435 246.751 432.869 246.101 431.714 244.946C430.56 243.792 429.91 242.226 429.908 240.593V82.8992C429.91 81.266 430.56 79.7003 431.714 78.5455C432.869 77.3907 434.435 76.7411 436.068 76.7393H471.796C473.429 76.7411 474.994 77.3907 476.149 78.5455C477.304 79.7003 477.954 81.266 477.955 82.8992V240.593C477.954 242.226 477.304 243.792 476.149 244.946C474.994 246.101 473.429 246.751 471.796 246.753Z" fill="#CCCCCC"/>
<path d="M522.31 246.753H157.644C157.317 246.753 157.004 246.623 156.773 246.392C156.542 246.161 156.412 245.848 156.412 245.521C156.412 245.194 156.542 244.881 156.773 244.65C157.004 244.419 157.317 244.289 157.644 244.289H522.31C522.637 244.289 522.951 244.419 523.182 244.65C523.413 244.881 523.542 245.194 523.542 245.521C523.542 245.848 523.413 246.161 523.182 246.392C522.951 246.623 522.637 246.753 522.31 246.753Z" fill="#3F3D56"/>
</svg>
