<svg width="292" height="390" viewBox="0 0 292 390" fill="none" xmlns="http://www.w3.org/2000/svg">
<path d="M116.29 0.934082L77.0815 23.5713L99.7188 62.7801L138.928 40.1429L116.29 0.934082Z" fill="#1C3A6A"/>
<path d="M116.788 70.9519L93.1504 30.0105L134.092 6.37329L157.729 47.3152L116.788 70.9519ZM95.8828 30.7429L117.521 68.2195L154.997 46.5828L133.359 9.10571L95.8828 30.7429Z" fill="#2F2E41"/>
<path d="M80.1084 180.969C90.6018 180.969 99.1084 172.462 99.1084 161.969C99.1084 151.475 90.6018 142.969 80.1084 142.969C69.615 142.969 61.1084 151.475 61.1084 161.969C61.1084 172.462 69.615 180.969 80.1084 180.969Z" fill="#4FC9F3"/>
<path d="M94.1084 181.969C90.1528 181.969 86.286 180.796 82.997 178.598C79.708 176.4 77.1446 173.277 75.6308 169.622C74.1171 165.968 73.721 161.946 74.4927 158.067C75.2644 154.187 77.1692 150.623 79.9663 147.826C82.7633 145.029 86.3269 143.125 90.2066 142.353C94.0862 141.581 98.1075 141.977 101.762 143.491C105.417 145.005 108.54 147.568 110.738 150.857C112.935 154.146 114.108 158.013 114.108 161.969C114.108 167.273 112.001 172.36 108.251 176.111C104.5 179.861 99.4128 181.969 94.1084 181.969ZM94.1084 143.969C90.5484 143.969 87.0682 145.024 84.1081 147.002C81.148 148.98 78.8409 151.791 77.4785 155.08C76.1162 158.369 75.7597 161.988 76.4542 165.48C77.1488 168.972 78.8631 172.179 81.3805 174.696C83.8978 177.214 87.1051 178.928 90.5968 179.623C94.0884 180.317 97.7077 179.961 100.997 178.598C104.286 177.236 107.097 174.929 109.075 171.969C111.053 169.009 112.108 165.529 112.108 161.969C112.108 157.195 110.212 152.616 106.836 149.241C103.461 145.865 98.8823 143.969 94.1084 143.969Z" fill="#2F2E41"/>
<path d="M199.97 383.549H15.9702C13.7167 383.546 11.5562 382.65 9.96271 381.056C8.36921 379.463 7.47281 377.302 7.47021 375.049V204.049C7.47281 201.795 8.36921 199.635 9.96271 198.041C11.5562 196.448 13.7167 195.551 15.9702 195.549H199.97C202.224 195.551 204.384 196.448 205.978 198.041C207.571 199.635 208.468 201.795 208.47 204.049V375.049C208.468 377.302 207.571 379.463 205.978 381.056C204.384 382.65 202.224 383.546 199.97 383.549Z" fill="#4FC9F3"/>
<path d="M120.969 389.553H94.9688C92.7152 389.55 90.5547 388.654 88.9612 387.06C87.3677 385.467 86.4713 383.306 86.4688 381.053V198.969C86.4713 196.715 87.3677 194.555 88.9612 192.961C90.5547 191.368 92.7152 190.471 94.9688 190.469H120.969C123.222 190.471 125.383 191.368 126.976 192.961C128.57 194.555 129.466 196.715 129.469 198.969V381.053C129.466 383.306 128.57 385.467 126.976 387.06C125.383 388.654 123.222 389.55 120.969 389.553Z" fill="#1C3A6A"/>
<path opacity="0.1" d="M207.97 216.469V281.749L143.04 196.049H192.5L207.97 216.469Z" fill="black"/>
<path d="M263.092 328.214C261.778 328.217 260.481 327.914 259.304 327.331C258.127 326.747 257.101 325.898 256.308 324.851L121.033 146.31C120.359 145.42 119.867 144.406 119.584 143.326C119.302 142.246 119.235 141.121 119.388 140.016C119.54 138.91 119.909 137.845 120.473 136.882C121.037 135.918 121.785 135.075 122.675 134.401L142.602 119.304C143.491 118.63 144.505 118.137 145.585 117.855C146.665 117.573 147.79 117.506 148.896 117.658C150.001 117.811 151.066 118.18 152.03 118.744C152.993 119.308 153.835 120.056 154.509 120.946L289.784 299.486C290.458 300.376 290.95 301.39 291.232 302.47C291.515 303.55 291.582 304.675 291.429 305.78C291.277 306.886 290.908 307.951 290.344 308.914C289.78 309.878 289.032 310.72 288.142 311.395L268.215 326.492C266.742 327.611 264.942 328.216 263.092 328.214Z" fill="#4FC9F3"/>
<path d="M208.945 189.48L174.672 215.448L200.64 249.722L234.913 223.754L208.945 189.48Z" fill="#1C3A6A"/>
<path d="M32.6368 58.8735L20.9189 102.605L64.6506 114.323L76.3685 70.5914L32.6368 58.8735Z" fill="#4FC9F3"/>
<path d="M46.0986 120.861L0.435547 108.626L12.6709 62.9617L58.334 75.197L46.0986 120.861ZM2.88477 107.212L44.6846 118.412L55.8848 76.6111L14.085 65.4109L2.88477 107.212Z" fill="#2F2E41"/>
</svg>
