<svg width="96" height="77" viewBox="0 0 96 77" fill="none" xmlns="http://www.w3.org/2000/svg">
<path d="M58.6629 44.1916L59.0574 44.2703C61.5837 44.7742 63.8576 46.0971 65.4941 48.0231C67.1311 49.9497 68.0298 52.362 68.0332 54.8552L68.0332 54.8561V72.7446V72.7454C68.0322 73.5246 67.7086 74.2657 67.1429 74.8079C66.5782 75.3492 65.8182 75.6491 65.0309 75.65H65.0301H30.937H30.9363C30.149 75.6491 29.3889 75.3492 28.8242 74.8079C28.2585 74.2657 27.9349 73.5246 27.934 72.7454L27.934 72.7446L27.934 54.8561V54.8552C27.9374 52.362 28.836 49.9497 30.473 48.0231C32.1095 46.0971 34.3834 44.7742 36.9098 44.2703L37.3042 44.1916L37.5506 44.5095C38.2562 45.4196 39.088 46.2345 40.0237 46.9315L41.596 48.1028H39.6354L39.1826 48.1028C39.1825 48.1028 39.1825 48.1028 39.1824 48.1028C37.2981 48.1049 35.4969 48.8235 34.1726 50.0929C32.8492 51.3613 32.1102 53.075 32.108 54.8565V71.5953H63.8591L63.8591 54.8569L63.8591 54.8561M58.6629 44.1916L57.3539 47.4735C59.1937 47.6054 60.931 48.3647 62.2443 49.6236C63.6924 51.0115 64.5069 52.8933 64.5091 54.8561H63.8591M58.6629 44.1916L58.4165 44.5095C57.711 45.4196 56.8792 46.2345 55.9435 46.9315L54.3712 48.1028H56.3318L56.7845 48.1028M58.6629 44.1916L56.7845 48.1028M63.8591 54.8561C63.8569 53.0748 63.1178 51.3612 61.7946 50.0929C60.4702 48.8235 58.669 48.1049 56.7848 48.1028M63.8591 54.8561L56.7848 48.1028M56.7845 48.1028C56.7846 48.1028 56.7847 48.1028 56.7848 48.1028M56.7845 48.1028L56.7848 48.1028" fill="#4FC9F3" stroke="#4FC9F3" stroke-width="1.3"/>
<path d="M36.5567 37.1219V37.1226C36.5567 39.3006 37.2306 41.4272 38.4898 43.2335C39.7487 45.0394 41.5351 46.4429 43.62 47.2706C45.7047 48.0983 47.9971 48.3145 50.2085 47.8928C52.42 47.4712 54.4551 46.4299 56.0549 44.8964C57.655 43.3628 58.748 41.4053 59.1911 39.27C59.6343 37.1345 59.4065 34.9214 58.538 32.9116C57.6697 30.9022 56.2011 29.1892 54.3224 27.986C52.444 26.783 50.2384 26.1425 47.9842 26.1425H47.9835C44.9626 26.1457 42.0612 27.2972 39.9171 29.3523C37.7721 31.4083 36.5601 34.2019 36.5567 37.1219ZM25.7106 55.067H5.52401L5.52401 39.1894C5.52766 36.0841 6.81604 33.1011 9.11606 30.8966C11.417 28.6911 14.5424 27.446 17.8078 27.4425H19.326L19.5927 26.1997C18.2034 25.5746 16.9275 24.7424 15.8126 23.7349L15.5843 23.5286L15.2801 23.5744C11.4098 24.1566 7.87786 26.0443 5.32221 28.9046C2.76597 31.7656 1.35505 35.4117 1.35 39.1878V39.1887L1.35 55.717L1.35 55.7178C1.35109 56.6293 1.72961 57.4974 2.39296 58.1332C3.05538 58.7681 3.94786 59.1207 4.8733 59.1217H4.87401H25.7106H26.3606V58.4717V55.717V55.067H25.7106ZM31.8285 26.1997L32.0952 27.4425H33.6141C35.2129 27.4425 36.7956 27.7429 38.2724 28.3262L38.6521 28.4762L38.9521 28.1991C39.6953 27.5129 40.5212 26.9129 41.4128 26.4122L42.4653 25.8211L41.3925 25.2678C39.7514 24.4214 37.9723 23.8507 36.1322 23.58L35.8293 23.5355L35.602 23.7406C34.4887 24.7455 33.2151 25.5758 31.8285 26.1997ZM38.5752 13.7083V13.7076C38.5752 11.2572 37.8169 8.86423 36.3999 6.83147C34.983 4.79907 32.9722 3.21905 30.6248 2.28706C28.2775 1.35515 25.6961 1.1117 23.2059 1.58646C20.7157 2.06125 18.4246 3.23378 16.6238 4.95981C14.8228 6.68612 13.5929 8.88899 13.0943 11.2914C12.5957 13.6941 12.8519 16.1843 13.8292 18.4457C14.8063 20.7068 16.459 22.6349 18.574 23.9894C20.6887 25.3437 23.1722 26.0651 25.7106 26.0651H25.7113C29.1132 26.0615 32.3799 24.7648 34.7934 22.4515C37.2078 20.1372 38.5713 16.9935 38.5752 13.7083ZM63.8732 27.4425L64.1399 26.1997C62.7533 25.5758 61.4797 24.7455 60.3664 23.7406L60.1391 23.5355L59.8362 23.58C57.9961 23.8507 56.217 24.4214 54.5759 25.2678L53.5031 25.8211L54.5556 26.4122C55.4472 26.9129 56.2731 27.5129 57.0163 28.1991L57.3163 28.4762L57.696 28.3262C59.1728 27.7429 60.7555 27.4425 62.3543 27.4425H63.8732ZM80.6883 23.5744L80.3841 23.5286L80.1558 23.7349C79.0409 24.7424 77.7651 25.5746 76.3757 26.1997L76.6424 27.4425H78.1606C81.426 27.446 84.5514 28.6911 86.8523 30.8966C89.1524 33.1011 90.4407 36.0841 90.4444 39.1894L90.4461 55.067H70.2578H69.6078V55.717V58.4717V59.1217H70.2578H91.0944L91.0951 59.1217C92.0205 59.1207 92.913 58.7681 93.5754 58.1332C94.2388 57.4974 94.6173 56.6293 94.6184 55.7178V55.717V39.1887V39.1878C94.6133 35.4117 93.2024 31.7656 90.6462 28.9046C88.0905 26.0443 84.5586 24.1566 80.6883 23.5744ZM70.2571 26.0651H70.2578C72.7962 26.0651 75.2797 25.3437 77.3944 23.9894C79.5094 22.6349 81.1621 20.7068 82.1392 18.4457C83.1165 16.1843 83.3727 13.6941 82.8741 11.2914C82.3755 8.88898 81.1456 6.68612 79.3446 4.95981C77.5438 3.23378 75.2527 2.06125 72.7625 1.58646C70.2723 1.1117 67.6909 1.35515 65.3436 2.28706C62.9962 3.21905 60.9854 4.79907 59.5685 6.83147C58.1515 8.86423 57.3932 11.2572 57.3932 13.7076L57.3932 13.7083C57.3971 16.9935 58.7606 20.1372 61.175 22.4515C63.5885 24.7648 66.8552 26.0615 70.2571 26.0651ZM47.9849 30.1972C49.4253 30.1973 50.8311 30.6069 52.0246 31.3712C53.218 32.1356 54.1439 33.2191 54.6894 34.4815C55.2349 35.7436 55.3771 37.1306 55.0994 38.4685C54.8217 39.8065 54.1356 41.0396 53.1231 42.0101C52.1103 42.9808 50.8166 43.6448 49.4044 43.9141C47.992 44.1833 46.5283 44.0449 45.1995 43.5173C43.8709 42.9898 42.7397 42.0983 41.9459 40.9596C41.1523 39.8213 40.7307 38.4861 40.7307 37.1226C40.733 35.2957 41.491 33.5384 42.8479 32.2377C44.206 30.9361 46.053 30.1993 47.9849 30.1972ZM25.7099 22.0104C23.9853 22.0103 22.3016 21.5199 20.8718 20.6042C19.4421 19.6885 18.3321 18.3899 17.6777 16.8758C17.0236 15.362 16.8529 13.6981 17.186 12.093C17.5191 10.4878 18.3422 9.00929 19.5556 7.8462C20.7694 6.68282 22.3191 5.88765 24.0101 5.56525C25.7012 5.24283 27.4538 5.40852 29.0452 6.04034C30.6364 6.67209 31.9921 7.74016 32.9438 9.10534C33.8952 10.4702 34.4011 12.0717 34.4011 13.7076C34.3984 15.8997 33.4889 18.0072 31.8626 19.566C30.2351 21.1259 28.0229 22.0079 25.7099 22.0104ZM70.2583 5.40472C71.9829 5.40481 73.6667 5.89516 75.0966 6.81091C76.5263 7.72657 77.6363 9.02519 78.2907 10.5393C78.9448 12.0531 79.1155 13.717 78.7824 15.3221C78.4493 16.9273 77.6263 18.4058 76.4128 19.5689C75.199 20.7323 73.6493 21.5275 71.9583 21.8499C70.2672 22.1723 68.5146 22.0066 66.9232 21.3748C65.332 20.743 63.9763 19.6749 63.0246 18.3098C62.0732 16.9449 61.5673 15.3434 61.5673 13.7076C61.57 11.5154 62.4795 9.40794 64.1058 7.8491C65.7333 6.28924 67.9454 5.40724 70.2583 5.40472Z" fill="#4FC9F3" stroke="#4FC9F3" stroke-width="1.3"/>
</svg>
