<svg width="80" height="28" viewBox="0 0 80 28" fill="none" xmlns="http://www.w3.org/2000/svg">
<path d="M53.0542 0.645874H45.957V7.71778H53.0542V0.645874Z" fill="#4FC9F3"/>
<path d="M45.9579 10.294V16.213C45.9579 18.7154 44.3707 20.3319 42.0513 20.3319C39.7318 20.3319 38.1446 18.7154 38.1446 16.213V0.645874H31.0474V16.3443C31.0474 22.6433 35.6253 26.8957 42.0513 26.8957C48.4772 26.8957 53.0552 22.6433 53.0552 16.3443V10.294H45.9579Z" fill="#4FC9F3"/>
<path d="M71.759 26.2487L64.5303 14.9373V26.2487H57.5859V0.645874H64.5303V11.4383L71.1936 0.645874H79.2463L71.1743 13.0483L79.9999 26.2498H71.759V26.2487Z" fill="#4FC9F3"/>
<path d="M27.7294 13.4479C27.7294 5.60194 21.9682 0 13.8855 0C5.78252 0 0 5.62365 0 13.4479C0 21.2732 5.78252 26.8969 13.8855 26.8969C15.585 26.8969 17.1819 26.6494 18.6441 26.1847L19.729 27.9999L24.7013 24.9362L23.6945 23.2502C26.2319 20.8618 27.7294 17.4463 27.7294 13.4479ZM7.22976 13.4479C7.22976 9.4625 10.0483 6.56273 13.8845 6.56273C17.7217 6.56273 20.4986 9.44078 20.4986 13.4479C20.4986 17.455 17.7217 20.3331 13.8845 20.3331C10.0483 20.332 7.22976 17.4322 7.22976 13.4479Z" fill="#4FC9F3"/>
</svg>
