<svg width="13" height="13" viewBox="0 0 13 13" fill="none" xmlns="http://www.w3.org/2000/svg">
<rect width="13" height="13" rx="6.5" fill="#4FC9F3" fill-opacity="0.1"/>
<path d="M9.17138 4.07982C9.38311 3.86808 9.72655 3.86808 9.93829 4.07982C10.15 4.29162 10.15 4.63506 9.93829 4.8468L5.86527 8.91996C5.65346 9.13169 5.31002 9.13169 5.09829 8.91996L3.06171 6.88338C2.84997 6.67164 2.84997 6.3282 3.06171 6.11647C3.27351 5.90466 3.61695 5.90466 3.82869 6.11647L5.48178 7.76956L9.17138 4.07982ZM6.49996 0C8.29462 0 9.9198 0.727659 11.0961 1.90393C12.2723 3.08012 13 4.70537 13 6.49996C13 8.29484 12.2724 9.9198 11.0961 11.0961C9.9198 12.2723 8.29462 13 6.49996 13C4.70515 13 3.08012 12.2724 1.90393 11.0961C0.727513 9.9198 0 8.29484 0 6.49996C0 4.70537 0.727659 3.08012 1.90393 1.90393C3.08012 0.727513 4.70515 0 6.49996 0ZM10.3292 2.67084C9.34927 1.69102 7.9954 1.08491 6.49996 1.08491C5.00445 1.08491 3.65057 1.69102 2.67084 2.67084C1.69102 3.65065 1.08491 5.00459 1.08491 6.49996C1.08491 7.99555 1.69102 9.34942 2.67084 10.3292C3.65057 11.309 5.00445 11.915 6.49996 11.915C7.9954 11.915 9.34927 11.309 10.3292 10.3292C11.309 9.34942 11.915 7.99555 11.915 6.49996C11.915 5.00459 11.309 3.65065 10.3292 2.67084Z" fill="#4FC9F3"/>
</svg>
