<svg width="111" height="73" viewBox="0 0 111 73" fill="none" xmlns="http://www.w3.org/2000/svg">
<path d="M87.9021 19.1839L87.9025 19.1836C89.1693 18.1882 91.1253 18.2948 92.2426 19.4056C93.3228 20.4796 93.2234 22.1064 91.9902 23.0729L91.9901 23.073L71.9129 38.8172L71.9123 38.8178C71.3585 39.2536 70.6324 39.5007 69.8717 39.5H69.8708C69.4596 39.5004 69.0536 39.4284 68.6771 39.2893C68.3005 39.1503 67.9629 38.9479 67.6825 38.6966L67.682 38.6961L58.3532 30.3554C57.2033 29.3272 57.2139 27.6979 58.3803 26.6814L58.3804 26.6813C59.5821 25.6332 61.5421 25.6445 62.7284 26.7053L69.6963 32.9358L70.0085 33.215L70.3381 32.9565L87.9021 19.1839ZM5.06055 33.0974H43.1518V38.353H5.06055V33.0974Z" fill="#4FC9F3" stroke="#1B426E"/>
<path d="M47.0324 5.75409H46.5324V6.25409V60.3729H40.4043V3.12695C40.4043 1.7355 41.7124 0.5 43.4682 0.5H107.027C108.783 0.5 110.091 1.7355 110.091 3.12714V60.8731C110.091 62.2645 108.783 63.5 107.027 63.5H95.4094V58.2459H103.463H103.963V57.7459V6.25409V5.75409H103.463H47.0324Z" fill="#4FC9F3" stroke="#1B426E"/>
<path d="M40.4939 16.5L40.4314 21.6936H15.7868H15.5027L15.3573 21.9377L6.73058 36.4182L6.66013 36.5364V36.6741V57.8064V58.3064H7.16013H11.7915V63.5H3.57996C1.80834 63.5 0.5 62.272 0.5 60.9033V35.9226V35.9225C0.499884 35.5224 0.610099 35.1242 0.82689 34.7602C0.826898 34.7602 0.826906 34.7602 0.826914 34.7602L10.8511 17.9343L10.4215 17.6784L10.8511 17.9343C11.1015 17.5139 11.487 17.1516 11.9737 16.895C12.4605 16.6382 13.0249 16.5 13.6041 16.5H40.4939ZM33.7944 58.3064H73.607V63.5H33.7944V58.3064Z" fill="#4FC9F3" stroke="#1B426E"/>
<path d="M9.62109 61C9.62109 54.7205 15.5013 49.5 22.8753 49.5C30.2492 49.5 36.1296 54.7216 36.1296 61C36.1296 67.2784 30.2492 72.5 22.8753 72.5C15.5015 72.5 9.62109 67.2795 9.62109 61ZM15.7354 61.0011C15.7354 64.5336 19.004 67.2942 22.8753 67.2942C26.7467 67.2942 30.0153 64.5336 30.0153 61.0011C30.0153 57.4687 26.7468 54.7069 22.8753 54.7069C19.0038 54.7069 15.7354 57.4687 15.7354 61.0011ZM71.0411 61C71.0411 54.7204 76.9202 49.5 84.2953 49.5C91.6704 49.5 97.5498 54.7215 97.5495 61C97.5495 67.2785 91.6693 72.5 84.2953 72.5C76.9214 72.5 71.0411 67.2795 71.0411 61ZM77.1554 61.0011C77.1554 64.5336 80.4239 67.2942 84.2953 67.2942C88.1665 67.2942 91.4365 64.5338 91.4365 61.0011C91.4365 57.4686 88.1667 54.7069 84.2953 54.7069C80.4238 54.7069 77.1554 57.4687 77.1554 61.0011Z" fill="#4FC9F3" stroke="#1B426E"/>
</svg>
