<svg width="37" height="38" viewBox="0 0 37 38" fill="none" xmlns="http://www.w3.org/2000/svg">
<rect width="37" height="38" rx="18.5" fill="white"/>
<path d="M8.40234 17.6953L8.9834 18.877L9.56445 17.6953H10.541L9.5498 19.458L10.5679 21.25H9.58154L8.9834 20.0464L8.38525 21.25H7.39648L8.41699 19.458L7.42334 17.6953H8.40234ZM13.1997 20.5908V21.25H11.4028V20.5908H13.1997ZM11.708 17.6953V21.25H10.8511V17.6953H11.708ZM15.3921 20.3052C15.3921 20.2498 15.384 20.2002 15.3677 20.1562C15.3514 20.1107 15.3213 20.0684 15.2773 20.0293C15.2334 19.9902 15.1699 19.9512 15.0869 19.9121C15.0055 19.8714 14.8981 19.8291 14.7646 19.7852C14.6084 19.7331 14.4578 19.6745 14.313 19.6094C14.1681 19.5426 14.0387 19.4653 13.9248 19.3774C13.8109 19.2879 13.7205 19.1838 13.6538 19.0649C13.5871 18.9445 13.5537 18.8045 13.5537 18.645C13.5537 18.492 13.5879 18.3545 13.6562 18.2324C13.7246 18.1087 13.8198 18.0037 13.9419 17.9175C14.0656 17.8296 14.2104 17.7629 14.3765 17.7173C14.5425 17.6701 14.724 17.6465 14.9209 17.6465C15.1813 17.6465 15.4108 17.6921 15.6094 17.7832C15.8096 17.8727 15.9658 18.0005 16.0781 18.1665C16.1921 18.3309 16.249 18.5254 16.249 18.75H15.397C15.397 18.6605 15.3783 18.5815 15.3408 18.5132C15.305 18.4448 15.2505 18.3911 15.1772 18.3521C15.104 18.313 15.012 18.2935 14.9014 18.2935C14.7939 18.2935 14.7036 18.3097 14.6304 18.3423C14.5571 18.3748 14.5018 18.4188 14.4644 18.4741C14.4269 18.5278 14.4082 18.5872 14.4082 18.6523C14.4082 18.7061 14.4229 18.7549 14.4521 18.7988C14.4831 18.8411 14.5262 18.881 14.5815 18.9185C14.6385 18.9559 14.7069 18.9917 14.7866 19.0259C14.868 19.0601 14.9591 19.0934 15.0601 19.126C15.2489 19.1862 15.4165 19.2537 15.563 19.3286C15.7111 19.4019 15.8356 19.4857 15.9365 19.5801C16.0391 19.6729 16.1164 19.7786 16.1685 19.8975C16.2222 20.0163 16.249 20.1506 16.249 20.3003C16.249 20.4598 16.2181 20.6014 16.1562 20.7251C16.0944 20.8488 16.0057 20.9538 15.8901 21.04C15.7746 21.1247 15.6362 21.189 15.4751 21.2329C15.314 21.2769 15.1341 21.2988 14.9355 21.2988C14.7533 21.2988 14.5734 21.276 14.396 21.2305C14.2202 21.1833 14.0607 21.1117 13.9175 21.0156C13.7743 20.918 13.6595 20.7935 13.5732 20.6421C13.4886 20.4891 13.4463 20.3076 13.4463 20.0977H14.3057C14.3057 20.2018 14.3195 20.2897 14.3472 20.3613C14.3748 20.4329 14.4155 20.4907 14.4692 20.5347C14.5229 20.577 14.5889 20.6079 14.667 20.6274C14.7451 20.6453 14.8346 20.6543 14.9355 20.6543C15.0446 20.6543 15.1325 20.6388 15.1992 20.6079C15.266 20.5754 15.3148 20.533 15.3457 20.481C15.3766 20.4272 15.3921 20.3687 15.3921 20.3052ZM17.4355 17.6953L18.0166 18.877L18.5977 17.6953H19.5742L18.583 19.458L19.6011 21.25H18.6147L18.0166 20.0464L17.4185 21.25H16.4297L17.4502 19.458L16.4565 17.6953H17.4355Z" fill="#4FC9F3"/>
<path d="M21.5 9.5V12C21.5 13.1046 22.3954 14 23.5 14H27" stroke="#4FC9F3"/>
<path d="M12.5 16.5V12C12.5 11.0557 12.9446 10.1666 13.7 9.6V9.6C14.2193 9.21053 14.8509 9 15.5 9H20.5925C21.4851 9 21.9314 9 22.3556 9.09323C22.7289 9.17527 23.0886 9.3104 23.4235 9.49448C23.8042 9.70367 24.1401 9.99757 24.8119 10.5854V10.5854C25.6187 11.2913 26.0221 11.6443 26.3113 12.0711C26.5656 12.4464 26.7543 12.8622 26.8692 13.3007C27 13.7995 27 14.3355 27 15.4075V23.5858C27 24.4913 26.6403 25.3597 26 26V26C25.3597 26.6403 24.4913 27 23.5858 27H15.9577C15.331 27 14.7161 26.8297 14.1787 26.5072V26.5072C13.1373 25.8824 12.5 24.7568 12.5 23.5423V22.5" stroke="#4FC9F3"/>
</svg>
