<svg width="37" height="38" viewBox="0 0 37 38" fill="none" xmlns="http://www.w3.org/2000/svg">
<rect width="37" height="38" rx="18.5" fill="#F9F9F9"/>
<path d="M10.4341 20.0464H11.2886C11.2772 20.2938 11.2104 20.5119 11.0884 20.7007C10.9663 20.8895 10.797 21.0368 10.5806 21.1426C10.3657 21.2467 10.1118 21.2988 9.81885 21.2988C9.58122 21.2988 9.36882 21.259 9.18164 21.1792C8.99609 21.0994 8.83822 20.9847 8.70801 20.835C8.57943 20.6852 8.48096 20.5037 8.4126 20.2905C8.34587 20.0773 8.3125 19.8372 8.3125 19.5703V19.3774C8.3125 19.1105 8.34749 18.8704 8.41748 18.6572C8.4891 18.4424 8.59001 18.2601 8.72021 18.1104C8.85205 17.959 9.00993 17.8434 9.19385 17.7637C9.37777 17.6839 9.58203 17.644 9.80664 17.644C10.1159 17.644 10.3771 17.6994 10.5903 17.8101C10.8035 17.9207 10.9688 18.0729 11.0859 18.2666C11.2031 18.4587 11.2723 18.6776 11.2935 18.9233H10.439C10.4357 18.7899 10.4129 18.6784 10.3706 18.5889C10.3283 18.4977 10.2616 18.4294 10.1704 18.3838C10.0793 18.3382 9.95801 18.3154 9.80664 18.3154C9.70085 18.3154 9.60889 18.335 9.53076 18.374C9.45264 18.4131 9.38753 18.4749 9.33545 18.5596C9.28337 18.6442 9.2443 18.7541 9.21826 18.8892C9.19385 19.0226 9.18164 19.1838 9.18164 19.3726V19.5703C9.18164 19.7591 9.19303 19.9202 9.21582 20.0537C9.23861 20.1872 9.27523 20.2962 9.32568 20.3809C9.37614 20.4655 9.44124 20.5282 9.521 20.5688C9.60238 20.6079 9.70166 20.6274 9.81885 20.6274C9.94906 20.6274 10.0589 20.6071 10.1484 20.5664C10.238 20.5241 10.3071 20.4606 10.356 20.376C10.4048 20.2897 10.4308 20.1799 10.4341 20.0464ZM13.5249 20.3052C13.5249 20.2498 13.5168 20.2002 13.5005 20.1562C13.4842 20.1107 13.4541 20.0684 13.4102 20.0293C13.3662 19.9902 13.3027 19.9512 13.2197 19.9121C13.1383 19.8714 13.0309 19.8291 12.8975 19.7852C12.7412 19.7331 12.5907 19.6745 12.4458 19.6094C12.3009 19.5426 12.1715 19.4653 12.0576 19.3774C11.9437 19.2879 11.8534 19.1838 11.7866 19.0649C11.7199 18.9445 11.6865 18.8045 11.6865 18.645C11.6865 18.492 11.7207 18.3545 11.7891 18.2324C11.8574 18.1087 11.9526 18.0037 12.0747 17.9175C12.1984 17.8296 12.3433 17.7629 12.5093 17.7173C12.6753 17.6701 12.8568 17.6465 13.0537 17.6465C13.3141 17.6465 13.5436 17.6921 13.7422 17.7832C13.9424 17.8727 14.0986 18.0005 14.2109 18.1665C14.3249 18.3309 14.3818 18.5254 14.3818 18.75H13.5298C13.5298 18.6605 13.5111 18.5815 13.4736 18.5132C13.4378 18.4448 13.3833 18.3911 13.3101 18.3521C13.2368 18.313 13.1449 18.2935 13.0342 18.2935C12.9268 18.2935 12.8364 18.3097 12.7632 18.3423C12.6899 18.3748 12.6346 18.4188 12.5972 18.4741C12.5597 18.5278 12.541 18.5872 12.541 18.6523C12.541 18.7061 12.5557 18.7549 12.585 18.7988C12.6159 18.8411 12.659 18.881 12.7144 18.9185C12.7713 18.9559 12.8397 18.9917 12.9194 19.0259C13.0008 19.0601 13.092 19.0934 13.1929 19.126C13.3817 19.1862 13.5493 19.2537 13.6958 19.3286C13.8439 19.4019 13.9684 19.4857 14.0693 19.5801C14.1719 19.6729 14.2492 19.7786 14.3013 19.8975C14.355 20.0163 14.3818 20.1506 14.3818 20.3003C14.3818 20.4598 14.3509 20.6014 14.2891 20.7251C14.2272 20.8488 14.1385 20.9538 14.0229 21.04C13.9074 21.1247 13.769 21.189 13.6079 21.2329C13.4468 21.2769 13.2669 21.2988 13.0684 21.2988C12.8861 21.2988 12.7062 21.276 12.5288 21.2305C12.353 21.1833 12.1935 21.1117 12.0503 21.0156C11.9071 20.918 11.7923 20.7935 11.7061 20.6421C11.6214 20.4891 11.5791 20.3076 11.5791 20.0977H12.4385C12.4385 20.2018 12.4523 20.2897 12.48 20.3613C12.5076 20.4329 12.5483 20.4907 12.6021 20.5347C12.6558 20.577 12.7217 20.6079 12.7998 20.6274C12.8779 20.6453 12.9674 20.6543 13.0684 20.6543C13.1774 20.6543 13.2653 20.6388 13.332 20.6079C13.3988 20.5754 13.4476 20.533 13.4785 20.481C13.5094 20.4272 13.5249 20.3687 13.5249 20.3052ZM16.1689 20.4126L16.9087 17.6953H17.8682L16.6694 21.25H16.0493L16.1689 20.4126ZM15.4976 17.6953L16.2373 20.4126L16.3618 21.25H15.7344L14.543 17.6953H15.4976Z" fill="#3F4254"/>
<path d="M21.5 9.5V12C21.5 13.1046 22.3954 14 23.5 14H27" stroke="#3F4254"/>
<path d="M12.5 16.5V12C12.5 11.0557 12.9446 10.1666 13.7 9.6V9.6C14.2193 9.21053 14.8509 9 15.5 9H20.5925C21.4851 9 21.9314 9 22.3556 9.09323C22.7289 9.17527 23.0886 9.3104 23.4235 9.49448C23.8042 9.70367 24.1401 9.99757 24.8119 10.5854V10.5854C25.6187 11.2913 26.0221 11.6443 26.3113 12.0711C26.5656 12.4464 26.7543 12.8622 26.8692 13.3007C27 13.7995 27 14.3355 27 15.4075V23.5858C27 24.4913 26.6403 25.3597 26 26V26C25.3597 26.6403 24.4913 27 23.5858 27H15.9577C15.331 27 14.7161 26.8297 14.1787 26.5072V26.5072C13.1373 25.8824 12.5 24.7568 12.5 23.5423V22.5" stroke="#3F4254"/>
</svg>
